<svg width="206" height="200" viewBox="0 0 206 200" fill="none" xmlns="http://www.w3.org/2000/svg">
<rect width="206" height="200" fill="white"/>
<rect width="206" height="25" fill="#F2F1EF"/>
<line x1="10.425" y1="50.75" x2="191.425" y2="50.75" stroke="black" stroke-width="0.5"/>
<path d="M27.4407 41.3817L28.9121 45.2914L30.38 41.3817H31.5256V46.4825H30.6427V44.8009L30.7303 42.5518L29.2239 46.4825H28.5898L27.0869 42.5553L27.1744 44.8009V46.4825H26.2916V41.3817H27.4407ZM32.3349 44.5522C32.3349 44.1808 32.4084 43.8468 32.5556 43.5502C32.7027 43.2513 32.9094 43.0224 33.1756 42.8636C33.4419 42.7024 33.7479 42.6218 34.0935 42.6218C34.605 42.6218 35.0196 42.7865 35.3372 43.1158C35.6572 43.4451 35.83 43.8819 35.8557 44.4261L35.8592 44.6258C35.8592 44.9994 35.7868 45.3334 35.642 45.6277C35.4995 45.922 35.294 46.1497 35.0254 46.3109C34.7592 46.472 34.4509 46.5526 34.1005 46.5526C33.5657 46.5526 33.1371 46.3751 32.8148 46.0201C32.4948 45.6627 32.3349 45.1875 32.3349 44.5942V44.5522ZM33.1862 44.6258C33.1862 45.0158 33.2667 45.3217 33.4279 45.5436C33.589 45.7632 33.8133 45.8729 34.1005 45.8729C34.3878 45.8729 34.6108 45.7608 34.7697 45.5366C34.9308 45.3124 35.0114 44.9843 35.0114 44.5522C35.0114 44.1692 34.9285 43.8655 34.7627 43.6413C34.5992 43.4171 34.3761 43.305 34.0935 43.305C33.8156 43.305 33.5949 43.4159 33.4314 43.6378C33.2679 43.8574 33.1862 44.1867 33.1862 44.6258Z" fill="black"/>
<path d="M55.0213 42.0963H53.4308V46.4825H52.5514V42.0963H50.9749V41.3817H55.0213V42.0963ZM57.6768 46.1112C57.4269 46.4054 57.0719 46.5526 56.6118 46.5526C56.2007 46.5526 55.8889 46.4323 55.6764 46.1917C55.4662 45.9512 55.3611 45.6032 55.3611 45.1477V42.6919H56.2124V45.1372C56.2124 45.6184 56.4121 45.8589 56.8115 45.8589C57.2249 45.8589 57.504 45.7106 57.6488 45.414V42.6919H58.5001V46.4825H57.6978L57.6768 46.1112Z" fill="black"/>
<path d="M78.2822 45.2213L79.067 41.3817H79.9463L78.7692 46.4825H77.9214L76.951 42.7585L75.9595 46.4825H75.1082L73.9311 41.3817H74.8104L75.6022 45.2143L76.5761 41.3817H77.3188L78.2822 45.2213ZM82.0693 46.5526C81.5298 46.5526 81.0919 46.3833 80.7556 46.0446C80.4216 45.7036 80.2546 45.2505 80.2546 44.6853V44.5802C80.2546 44.2018 80.327 43.8644 80.4718 43.5677C80.619 43.2688 80.8245 43.0364 81.0884 42.8706C81.3523 42.7048 81.6466 42.6218 81.9712 42.6218C82.4874 42.6218 82.8856 42.7865 83.1659 43.1158C83.4485 43.4451 83.5898 43.9111 83.5898 44.5136V44.857H81.1129C81.1386 45.1699 81.2426 45.4175 81.4247 45.5997C81.6092 45.7819 81.8405 45.8729 82.1184 45.8729C82.5084 45.8729 82.8261 45.7153 83.0713 45.4L83.5302 45.8379C83.3784 46.0645 83.1752 46.2408 82.9207 46.3669C82.6684 46.4907 82.3846 46.5526 82.0693 46.5526ZM81.9677 43.305C81.7342 43.305 81.545 43.3867 81.4002 43.5502C81.2577 43.7137 81.1667 43.9414 81.1269 44.2334H82.749V44.1703C82.7303 43.8854 82.6544 43.6705 82.5213 43.5257C82.3881 43.3786 82.2036 43.305 81.9677 43.305Z" fill="black"/>
<path d="M102.738 42.0963H101.147V46.4825H100.268V42.0963H98.6915V41.3817H102.738V42.0963ZM104.167 43.1053C104.445 42.783 104.797 42.6218 105.222 42.6218C106.03 42.6218 106.44 43.0831 106.451 44.0057V46.4825H105.6V44.0372C105.6 43.7756 105.543 43.5911 105.428 43.4837C105.316 43.3739 105.15 43.319 104.931 43.319C104.59 43.319 104.335 43.4708 104.167 43.7744V46.4825H103.316V41.1014H104.167V43.1053Z" fill="black"/>
<path d="M126.892 44.321H124.839V46.4825H123.953V41.3817H127.193V42.0963H124.839V43.6133H126.892V44.321ZM129.709 43.4697C129.597 43.451 129.481 43.4416 129.362 43.4416C128.972 43.4416 128.709 43.5911 128.574 43.8901V46.4825H127.722V42.6919H128.535L128.556 43.1158C128.762 42.7865 129.047 42.6218 129.411 42.6218C129.532 42.6218 129.633 42.6382 129.712 42.6709L129.709 43.4697Z" fill="black"/>
<path d="M149.617 45.1688C149.617 44.9446 149.538 44.7717 149.379 44.6503C149.222 44.5288 148.939 44.4062 148.528 44.2824C148.116 44.1586 147.79 44.0208 147.547 43.869C147.082 43.5771 146.849 43.1964 146.849 42.7269C146.849 42.3159 147.016 41.9772 147.35 41.711C147.687 41.4447 148.122 41.3116 148.657 41.3116C149.012 41.3116 149.329 41.377 149.607 41.5078C149.885 41.6386 150.103 41.8254 150.262 42.0683C150.421 42.3089 150.5 42.5763 150.5 42.8706H149.617C149.617 42.6043 149.533 42.3965 149.365 42.247C149.199 42.0952 148.961 42.0193 148.65 42.0193C148.361 42.0193 148.135 42.0812 147.974 42.2049C147.815 42.3287 147.736 42.5016 147.736 42.7234C147.736 42.9103 147.822 43.0668 147.995 43.1929C148.168 43.3167 148.453 43.4381 148.85 43.5572C149.247 43.674 149.566 43.8083 149.806 43.9601C150.047 44.1096 150.223 44.2824 150.335 44.4786C150.447 44.6725 150.503 44.9002 150.503 45.1618C150.503 45.5868 150.34 45.9255 150.013 46.1777C149.688 46.4276 149.247 46.5526 148.689 46.5526C148.32 46.5526 147.98 46.4849 147.669 46.3494C147.361 46.2116 147.12 46.0224 146.948 45.7819C146.777 45.5413 146.692 45.261 146.692 44.9411H147.578C147.578 45.2307 147.674 45.4549 147.865 45.6137C148.057 45.7725 148.331 45.8519 148.689 45.8519C148.997 45.8519 149.228 45.79 149.382 45.6662C149.539 45.5401 149.617 45.3743 149.617 45.1688ZM153.464 46.4825C153.426 46.4101 153.394 46.2922 153.366 46.1287C153.095 46.4113 152.763 46.5526 152.371 46.5526C151.99 46.5526 151.679 46.444 151.439 46.2268C151.198 46.0096 151.078 45.741 151.078 45.421C151.078 45.017 151.227 44.7075 151.526 44.4926C151.828 44.2754 152.257 44.1668 152.816 44.1668H153.338V43.9181C153.338 43.7219 153.283 43.5654 153.173 43.4486C153.063 43.3295 152.896 43.27 152.672 43.27C152.478 43.27 152.319 43.319 152.196 43.4171C152.072 43.5129 152.01 43.6355 152.01 43.785H151.159C151.159 43.5771 151.227 43.3832 151.365 43.2034C151.503 43.0212 151.69 42.8788 151.926 42.776C152.164 42.6732 152.429 42.6218 152.721 42.6218C153.165 42.6218 153.519 42.734 153.783 42.9582C154.046 43.18 154.182 43.493 154.189 43.8971V45.6067C154.189 45.9477 154.237 46.2198 154.333 46.423V46.4825H153.464ZM152.528 45.8694C152.697 45.8694 152.854 45.8286 153.001 45.7468C153.151 45.6651 153.263 45.5553 153.338 45.4175V44.7028H152.879C152.563 44.7028 152.326 44.7577 152.168 44.8675C152.009 44.9773 151.929 45.1326 151.929 45.3334C151.929 45.4969 151.983 45.6277 152.09 45.7258C152.2 45.8216 152.346 45.8694 152.528 45.8694Z" fill="black"/>
<path d="M173.481 45.1688C173.481 44.9446 173.401 44.7717 173.242 44.6503C173.086 44.5288 172.802 44.4062 172.391 44.2824C171.98 44.1586 171.653 44.0208 171.41 43.869C170.945 43.5771 170.713 43.1964 170.713 42.7269C170.713 42.3159 170.88 41.9772 171.214 41.711C171.55 41.4447 171.986 41.3116 172.521 41.3116C172.876 41.3116 173.192 41.377 173.47 41.5078C173.748 41.6386 173.966 41.8254 174.125 42.0683C174.284 42.3089 174.363 42.5763 174.363 42.8706H173.481C173.481 42.6043 173.397 42.3965 173.228 42.247C173.063 42.0952 172.824 42.0193 172.514 42.0193C172.224 42.0193 171.999 42.0812 171.838 42.2049C171.679 42.3287 171.599 42.5016 171.599 42.7234C171.599 42.9103 171.686 43.0668 171.859 43.1929C172.031 43.3167 172.316 43.4381 172.713 43.5572C173.11 43.674 173.429 43.8083 173.67 43.9601C173.91 44.1096 174.087 44.2824 174.199 44.4786C174.311 44.6725 174.367 44.9002 174.367 45.1618C174.367 45.5868 174.204 45.9255 173.877 46.1777C173.552 46.4276 173.11 46.5526 172.552 46.5526C172.183 46.5526 171.843 46.4849 171.533 46.3494C171.225 46.2116 170.984 46.0224 170.811 45.7819C170.641 45.5413 170.555 45.261 170.555 44.9411H171.442C171.442 45.2307 171.537 45.4549 171.729 45.6137C171.92 45.7725 172.195 45.8519 172.552 45.8519C172.861 45.8519 173.092 45.79 173.246 45.6662C173.402 45.5401 173.481 45.3743 173.481 45.1688ZM177.359 46.1112C177.109 46.4054 176.754 46.5526 176.294 46.5526C175.883 46.5526 175.571 46.4323 175.358 46.1917C175.148 45.9512 175.043 45.6032 175.043 45.1477V42.6919H175.894V45.1372C175.894 45.6184 176.094 45.8589 176.494 45.8589C176.907 45.8589 177.186 45.7106 177.331 45.414V42.6919H178.182V46.4825H177.38L177.359 46.1112Z" fill="black"/>
<rect width="167.413" height="23.9161" transform="translate(19 56.4196)" fill="#C4C4C4"/>
<path d="M30.1698 68.5364V69.0619H30.6322C30.7934 69.0619 30.9405 69.0806 31.0737 69.1179C31.2091 69.1553 31.3247 69.2125 31.4205 69.2896C31.5139 69.3667 31.5863 69.4636 31.6377 69.5804C31.6914 69.6948 31.7183 69.8314 31.7183 69.9903C31.7183 70.1514 31.6949 70.2916 31.6482 70.4107C31.6038 70.5274 31.5396 70.6255 31.4555 70.7049C31.3714 70.7844 31.2698 70.8439 31.1507 70.8836C31.0316 70.921 30.8985 70.9397 30.7513 70.9397C30.6042 70.9397 30.4699 70.9186 30.3485 70.8766C30.2293 70.8346 30.1278 70.775 30.0437 70.6979C29.9596 70.6209 29.8942 70.5274 29.8475 70.4177C29.8031 70.3079 29.7809 70.1865 29.7809 70.0533H29.1328C29.1328 70.2775 29.1748 70.4772 29.2589 70.6524C29.3453 70.8276 29.4609 70.9759 29.6058 71.0973C29.7506 71.2188 29.9211 71.311 30.1172 71.3741C30.3158 71.4371 30.5271 71.4687 30.7513 71.4687C30.9802 71.4687 31.1928 71.436 31.389 71.3706C31.5875 71.3028 31.7591 71.2048 31.9039 71.0763C32.0487 70.9502 32.162 70.7949 32.2438 70.6104C32.3255 70.4258 32.3664 70.2145 32.3664 69.9763C32.3664 69.8595 32.3524 69.7415 32.3243 69.6224C32.2986 69.5033 32.2531 69.39 32.1877 69.2826C32.12 69.1752 32.0301 69.0782 31.918 68.9918C31.8082 68.9054 31.6704 68.8353 31.5046 68.7816C31.6424 68.7232 31.7603 68.6508 31.8584 68.5644C31.9588 68.4757 32.0406 68.3811 32.1036 68.2806C32.1667 68.1825 32.2134 68.0809 32.2438 67.9758C32.2741 67.8707 32.2893 67.7692 32.2893 67.6711C32.2893 67.4352 32.2519 67.2273 32.1772 67.0475C32.1025 66.8676 31.9974 66.717 31.8619 66.5955C31.7264 66.4741 31.5641 66.383 31.3749 66.3223C31.1858 66.2592 30.9767 66.2277 30.7478 66.2277C30.5119 66.2277 30.2971 66.2651 30.1032 66.3398C29.9117 66.4122 29.7471 66.5115 29.6093 66.6376C29.4715 66.766 29.364 66.9167 29.287 67.0895C29.2122 67.26 29.1748 67.4422 29.1748 67.636H29.8265C29.8265 67.5029 29.8487 67.3826 29.893 67.2752C29.9374 67.1677 30.0005 67.0755 30.0822 66.9984C30.1616 66.9213 30.2574 66.863 30.3695 66.8233C30.4839 66.7812 30.61 66.7602 30.7478 66.7602C30.8903 66.7602 31.0164 66.7789 31.1262 66.8162C31.2383 66.8513 31.3317 66.905 31.4065 66.9774C31.4835 67.0521 31.5419 67.1467 31.5816 67.2612C31.6213 67.3733 31.6412 67.5052 31.6412 67.657C31.6412 67.7855 31.619 67.9034 31.5746 68.0109C31.5303 68.1183 31.466 68.2106 31.3819 68.2876C31.2955 68.3647 31.1893 68.4254 31.0631 68.4698C30.9394 68.5142 30.7957 68.5364 30.6322 68.5364H30.1698Z" fill="black"/>
<rect x="19" y="56.4196" width="23.9161" height="23.9161" stroke="#DFDFDF" stroke-width="0.597902"/>
<path d="M55.9567 69.6855V66.2978H55.2665L52.9823 69.8326V70.2145H55.3085V71.3986H55.9567V70.2145H56.6678V69.6855H55.9567ZM53.7005 69.6855L55.2034 67.3558L55.3085 67.1596V69.6855H53.7005Z" fill="black"/>
<rect x="42.9161" y="56.4196" width="23.9161" height="23.9161" stroke="#DFDFDF" stroke-width="0.597902"/>
<path d="M77.4765 68.8412L77.995 68.9743C78.0534 68.9229 78.1094 68.8774 78.1631 68.8377C78.2192 68.798 78.2787 68.7641 78.3418 68.7361C78.4049 68.708 78.4749 68.687 78.552 68.673C78.6314 68.6567 78.7248 68.6485 78.8323 68.6485C78.9958 68.6485 79.1406 68.6777 79.2667 68.7361C79.3928 68.7945 79.4991 68.8739 79.5855 68.9743C79.6719 69.0771 79.7373 69.1973 79.7817 69.3351C79.8284 69.4729 79.8517 69.6212 79.8517 69.7801C79.8517 69.9552 79.8307 70.1141 79.7887 70.2565C79.749 70.399 79.6894 70.5204 79.61 70.6209C79.5283 70.7236 79.4278 70.803 79.3087 70.8591C79.1896 70.9128 79.053 70.9397 78.8988 70.9397C78.6256 70.9397 78.4014 70.8649 78.2262 70.7155C78.0534 70.566 77.9471 70.3464 77.9074 70.0568H77.2908C77.3142 70.2927 77.3714 70.4994 77.4625 70.6769C77.5559 70.8544 77.675 71.0016 77.8198 71.1183C77.9623 71.2351 78.1258 71.3227 78.3103 71.3811C78.4948 71.4395 78.691 71.4687 78.8988 71.4687C79.1698 71.4687 79.4056 71.4266 79.6065 71.3426C79.8074 71.2561 79.9744 71.137 80.1075 70.9852C80.2383 70.8357 80.3364 70.6571 80.4018 70.4492C80.4672 70.2413 80.4999 70.016 80.4999 69.7731C80.4999 69.5161 80.4648 69.2826 80.3948 69.0724C80.3247 68.8622 80.2243 68.6824 80.0935 68.5329C79.9627 68.3857 79.8039 68.2713 79.617 68.1896C79.4302 68.1078 79.2188 68.0669 78.9829 68.0669C78.7984 68.0669 78.6361 68.0891 78.4959 68.1335C78.3558 68.1779 78.2355 68.2293 78.1351 68.2876L78.2787 66.9284H80.3492V66.2978H77.7322L77.4765 68.8412Z" fill="black"/>
<rect x="66.8322" y="56.4196" width="23.9161" height="23.9161" stroke="#DFDFDF" stroke-width="0.597902"/>
<path d="M103.551 66.2943H103.495C103.13 66.2943 102.804 66.3456 102.517 66.4484C102.23 66.5488 101.986 66.6995 101.785 66.9003C101.493 67.1923 101.297 67.5438 101.196 67.9548C101.096 68.3659 101.046 68.784 101.046 69.209V69.5138C101.046 69.7614 101.083 70.009 101.158 70.2565C101.233 70.5018 101.346 70.7166 101.498 70.9011C101.633 71.0693 101.8 71.2059 101.999 71.311C102.197 71.4161 102.427 71.4687 102.689 71.4687C102.948 71.4687 103.176 71.4231 103.372 71.332C103.57 71.241 103.736 71.116 103.869 70.9572C104.003 70.8007 104.102 70.6174 104.167 70.4072C104.235 70.197 104.269 69.9727 104.269 69.7345C104.269 69.5267 104.241 69.3223 104.185 69.1214C104.129 68.9206 104.041 68.7407 103.922 68.5819C103.803 68.4231 103.651 68.2958 103.467 68.2001C103.282 68.102 103.062 68.0529 102.808 68.0529C102.691 68.0529 102.579 68.0669 102.472 68.095C102.366 68.1207 102.268 68.1557 102.177 68.2001C102.084 68.2468 101.997 68.3017 101.918 68.3647C101.839 68.4254 101.769 68.492 101.708 68.5644C101.722 68.3402 101.766 68.1218 101.841 67.9093C101.918 67.6968 102.03 67.5134 102.177 67.3593C102.317 67.2121 102.495 67.0953 102.71 67.0089C102.925 66.9202 103.186 66.8758 103.495 66.8758H103.551V66.2943ZM102.703 68.5924C102.859 68.5924 102.996 68.6251 103.113 68.6905C103.229 68.7559 103.326 68.8435 103.403 68.9533C103.481 69.0631 103.538 69.1892 103.575 69.3316C103.612 69.4718 103.631 69.6166 103.631 69.7661C103.631 69.9342 103.61 70.0907 103.568 70.2355C103.528 70.378 103.469 70.5006 103.389 70.6033C103.308 70.7061 103.208 70.7867 103.092 70.8451C102.975 70.9035 102.841 70.9327 102.689 70.9327C102.558 70.9327 102.433 70.9023 102.314 70.8416C102.195 70.7785 102.09 70.6874 101.999 70.5683C101.908 70.4492 101.835 70.3032 101.781 70.1304C101.728 69.9552 101.701 69.7555 101.701 69.5313V69.3141C101.741 69.2067 101.794 69.1086 101.862 69.0198C101.93 68.9311 102.008 68.8552 102.097 68.7921C102.185 68.7291 102.281 68.68 102.384 68.645C102.487 68.61 102.593 68.5924 102.703 68.5924Z" fill="black"/>
<rect x="90.7483" y="56.4196" width="23.9161" height="23.9161" stroke="#DFDFDF" stroke-width="0.597902"/>
<path d="M128.307 66.6621V66.2978H124.86V66.8653H127.621L125.515 71.3986H126.195L128.307 66.6621Z" fill="black"/>
<rect x="114.664" y="56.4196" width="23.9161" height="23.9161" stroke="#DFDFDF" stroke-width="0.597902"/>
<path d="M152.132 67.629C152.132 67.4071 152.094 67.2098 152.017 67.037C151.94 66.8618 151.834 66.7146 151.698 66.5955C151.563 66.4764 151.403 66.3853 151.218 66.3223C151.034 66.2592 150.834 66.2277 150.619 66.2277C150.402 66.2277 150.201 66.2592 150.016 66.3223C149.834 66.3853 149.678 66.4764 149.547 66.5955C149.414 66.7146 149.31 66.8618 149.235 67.037C149.16 67.2098 149.123 67.4071 149.123 67.629C149.123 67.7551 149.141 67.8754 149.176 67.9899C149.211 68.1043 149.26 68.2094 149.323 68.3052C149.386 68.4033 149.463 68.492 149.554 68.5714C149.645 68.6485 149.747 68.7151 149.859 68.7711C149.728 68.8272 149.61 68.8972 149.505 68.9813C149.4 69.0654 149.31 69.16 149.235 69.2651C149.16 69.3725 149.103 69.4905 149.064 69.6189C149.024 69.745 149.004 69.8793 149.004 70.0218C149.004 70.2554 149.046 70.462 149.13 70.6419C149.214 70.8217 149.33 70.9724 149.477 71.0938C149.622 71.2176 149.792 71.311 149.988 71.3741C150.187 71.4371 150.401 71.4687 150.63 71.4687C150.854 71.4687 151.064 71.4371 151.26 71.3741C151.456 71.3087 151.628 71.2141 151.775 71.0903C151.92 70.9689 152.034 70.8182 152.118 70.6384C152.205 70.4585 152.248 70.253 152.248 70.0218C152.248 69.8793 152.227 69.745 152.185 69.6189C152.145 69.4928 152.088 69.376 152.013 69.2686C151.936 69.1611 151.844 69.0666 151.737 68.9848C151.632 68.9007 151.514 68.8307 151.383 68.7746C151.458 68.7372 151.528 68.6952 151.593 68.6485C151.658 68.6018 151.718 68.5516 151.772 68.4978C151.884 68.3857 151.971 68.2561 152.034 68.109C152.097 67.9595 152.13 67.7995 152.132 67.629ZM151.6 70.0078C151.6 70.1549 151.575 70.2869 151.526 70.4037C151.48 70.5181 151.414 70.615 151.33 70.6944C151.244 70.7738 151.141 70.8346 151.022 70.8766C150.903 70.9186 150.772 70.9397 150.63 70.9397C150.48 70.9397 150.345 70.9186 150.223 70.8766C150.104 70.8346 150.002 70.7738 149.918 70.6944C149.834 70.615 149.769 70.5181 149.722 70.4037C149.678 70.2869 149.656 70.1549 149.656 70.0078C149.656 69.8653 149.678 69.7345 149.722 69.6154C149.769 69.4963 149.834 69.3935 149.918 69.3071C150.002 69.223 150.104 69.1576 150.223 69.1109C150.342 69.0642 150.475 69.0409 150.623 69.0409C150.765 69.0409 150.896 69.0642 151.015 69.1109C151.136 69.1576 151.24 69.223 151.327 69.3071C151.413 69.3935 151.48 69.4963 151.526 69.6154C151.575 69.7345 151.6 69.8653 151.6 70.0078ZM151.481 67.6395C151.481 67.7703 151.46 67.8894 151.418 67.9969C151.376 68.1043 151.317 68.1954 151.243 68.2701C151.166 68.3472 151.074 68.4068 150.969 68.4488C150.864 68.4885 150.75 68.5084 150.626 68.5084C150.5 68.5084 150.384 68.4885 150.279 68.4488C150.176 68.4068 150.088 68.3472 150.013 68.2701C149.936 68.1954 149.876 68.1055 149.834 68.0004C149.795 67.8929 149.775 67.7727 149.775 67.6395C149.775 67.5064 149.795 67.3861 149.834 67.2787C149.876 67.1689 149.935 67.0755 150.009 66.9984C150.084 66.9213 150.173 66.863 150.276 66.8233C150.378 66.7812 150.493 66.7602 150.619 66.7602C150.745 66.7602 150.861 66.7824 150.966 66.8268C151.071 66.8688 151.162 66.9284 151.239 67.0054C151.314 67.0848 151.372 67.1783 151.414 67.2857C151.459 67.3931 151.481 67.5111 151.481 67.6395Z" fill="black"/>
<rect x="138.58" y="56.4196" width="23.9161" height="23.9161" stroke="#DFDFDF" stroke-width="0.597902"/>
<path d="M173.607 70.8241H173.54V71.4021H173.607C174.027 71.4021 174.383 71.3449 174.675 71.2304C174.97 71.1137 175.2 70.9619 175.365 70.775C175.641 70.4667 175.821 70.1141 175.905 69.717C175.989 69.3176 176.031 68.9206 176.031 68.5259V68.2911C176.031 68.0132 175.993 67.7353 175.915 67.4574C175.838 67.1771 175.723 66.9435 175.569 66.7567C175.438 66.5979 175.276 66.4706 175.082 66.3748C174.89 66.2767 174.664 66.2277 174.402 66.2277C174.14 66.2277 173.91 66.2756 173.712 66.3713C173.516 66.4647 173.352 66.5909 173.221 66.7497C173.088 66.9108 172.988 67.0988 172.92 67.3137C172.855 67.5263 172.822 67.7528 172.822 67.9934C172.822 68.1989 172.85 68.4033 172.906 68.6064C172.962 68.8096 173.05 68.9918 173.169 69.153C173.288 69.3141 173.439 69.4449 173.621 69.5453C173.805 69.6434 174.024 69.6925 174.276 69.6925C174.407 69.6925 174.527 69.6796 174.637 69.6539C174.749 69.6259 174.85 69.5886 174.942 69.5418C175.033 69.4951 175.114 69.4414 175.187 69.3807C175.259 69.3176 175.323 69.2511 175.379 69.181V69.188C175.368 69.4029 175.334 69.6107 175.278 69.8116C175.222 70.0125 175.113 70.2005 174.952 70.3756C174.819 70.5181 174.643 70.629 174.423 70.7084C174.206 70.7855 173.934 70.8241 173.607 70.8241ZM174.381 69.1565C174.225 69.1565 174.088 69.1226 173.971 69.0549C173.857 68.9848 173.762 68.8937 173.687 68.7816C173.61 68.6695 173.553 68.5422 173.516 68.3998C173.478 68.2549 173.46 68.1078 173.46 67.9583C173.46 67.7902 173.481 67.6337 173.523 67.4889C173.565 67.3417 173.627 67.2145 173.708 67.107C173.788 67.0019 173.886 66.919 174.003 66.8583C174.119 66.7976 174.254 66.7672 174.406 66.7672C174.539 66.7672 174.664 66.7999 174.78 66.8653C174.899 66.9307 175.005 67.0241 175.096 67.1456C175.184 67.2693 175.255 67.42 175.306 67.5975C175.36 67.775 175.386 67.977 175.386 68.2036V68.4138C175.347 68.5235 175.292 68.624 175.222 68.7151C175.154 68.8038 175.077 68.8809 174.991 68.9463C174.902 69.014 174.805 69.0666 174.7 69.1039C174.597 69.139 174.491 69.1565 174.381 69.1565Z" fill="black"/>
<rect x="162.497" y="56.4196" width="23.9161" height="23.9161" stroke="#DFDFDF" stroke-width="0.597902"/>
<rect width="167.413" height="23.9161" transform="translate(19 80.3357)" fill="#C4C4C4"/>
<path d="M29.3605 95.3147V90.2138H29.308L27.3776 90.9565V91.5486L28.7124 91.0406V95.3147H29.3605ZM34.7697 93.3633V92.1687C34.7697 91.8441 34.7323 91.5568 34.6576 91.3069C34.5828 91.0546 34.4754 90.8421 34.3353 90.6693C34.1928 90.4964 34.0188 90.3656 33.8133 90.2769C33.6101 90.1858 33.3777 90.1403 33.1161 90.1403C32.8568 90.1403 32.6245 90.1858 32.4189 90.2769C32.2157 90.3656 32.0441 90.4964 31.9039 90.6693C31.7615 90.8421 31.6529 91.0546 31.5781 91.3069C31.5034 91.5568 31.466 91.8441 31.466 92.1687V93.3633C31.466 93.688 31.5034 93.9764 31.5781 94.2287C31.6529 94.4786 31.7615 94.6888 31.9039 94.8593C32.0464 95.0344 32.2204 95.1664 32.4259 95.2551C32.6315 95.3415 32.8639 95.3848 33.1231 95.3848C33.3847 95.3848 33.6171 95.3404 33.8203 95.2516C34.0235 95.1629 34.1951 95.0321 34.3353 94.8593C34.4754 94.6888 34.5828 94.4786 34.6576 94.2287C34.7323 93.9764 34.7697 93.688 34.7697 93.3633ZM32.1176 93.2337C32.1176 93.173 32.1176 93.1134 32.1176 93.055C32.1176 92.9967 32.1176 92.9383 32.1176 92.8799V92.0251C32.1176 91.7868 32.141 91.5778 32.1877 91.398C32.2368 91.2158 32.3103 91.0675 32.4084 90.953C32.4902 90.862 32.5894 90.7931 32.7062 90.7463C32.8253 90.6973 32.9619 90.6728 33.1161 90.6728C33.2679 90.6728 33.401 90.695 33.5155 90.7393C33.6323 90.7837 33.7303 90.8503 33.8098 90.939C33.8915 91.0254 33.9557 91.134 34.0024 91.2648C34.0515 91.3933 34.0853 91.5416 34.104 91.7098L32.1176 93.2337ZM34.118 93.5C34.118 93.7499 34.0924 93.9671 34.041 94.1516C33.9919 94.3361 33.9137 94.4856 33.8062 94.6C33.7268 94.6841 33.6299 94.7483 33.5155 94.7927C33.401 94.8371 33.2702 94.8593 33.1231 94.8593C32.983 94.8593 32.8568 94.8394 32.7447 94.7997C32.6326 94.7577 32.5369 94.6969 32.4575 94.6175C32.3711 94.5334 32.301 94.4272 32.2473 94.2987C32.1935 94.1679 32.1562 94.0173 32.1352 93.8468L34.118 92.3298C34.118 92.3952 34.118 92.4782 34.118 92.5786C34.118 92.6767 34.118 92.7432 34.118 92.7783V93.5Z" fill="black"/>
<rect x="19" y="80.3357" width="23.9161" height="23.9161" stroke="#DFDFDF" stroke-width="0.597902"/>
<path d="M53.2766 95.3147V90.2138H53.2241L51.2937 90.9565V91.5486L52.6285 91.0406V95.3147H53.2766ZM57.5857 95.3147V90.2138H57.5332L55.6028 90.9565V91.5486L56.9376 91.0406V95.3147H57.5857Z" fill="black"/>
<rect x="42.9161" y="80.3357" width="23.9161" height="23.9161" stroke="#DFDFDF" stroke-width="0.597902"/>
<path d="M77.1927 95.3147V90.2138H77.1402L75.2098 90.9565V91.5486L76.5446 91.0406V95.3147H77.1927ZM82.5283 95.3147V94.7857H79.9673L81.3371 93.3003C81.4656 93.1601 81.5871 93.02 81.7015 92.8799C81.8183 92.7374 81.921 92.5938 82.0098 92.449C82.0962 92.3042 82.1651 92.1582 82.2165 92.011C82.2679 91.8616 82.2936 91.7109 82.2936 91.5591C82.2936 91.3559 82.2574 91.1679 82.185 90.9951C82.1149 90.8223 82.0133 90.6728 81.8802 90.5467C81.747 90.4205 81.5835 90.3224 81.3897 90.2524C81.1982 90.18 80.9821 90.1438 80.7416 90.1438C80.48 90.1438 80.2464 90.1858 80.0409 90.2699C79.8377 90.354 79.6661 90.4672 79.5259 90.6097C79.3835 90.7522 79.2749 90.9192 79.2001 91.1107C79.1254 91.2999 79.088 91.5019 79.088 91.7168H79.7396C79.7396 91.558 79.7595 91.4143 79.7992 91.2859C79.8412 91.1574 79.9043 91.0476 79.9884 90.9565C80.0701 90.8678 80.1729 90.7989 80.2967 90.7498C80.4228 90.7008 80.5711 90.6763 80.7416 90.6763C80.8817 90.6763 81.0067 90.7008 81.1164 90.7498C81.2285 90.7966 81.3243 90.8608 81.4037 90.9425C81.4808 91.0243 81.5392 91.1212 81.5789 91.2333C81.6209 91.3431 81.6419 91.461 81.6419 91.5871C81.6419 91.6899 81.6291 91.7903 81.6034 91.8884C81.5777 91.9842 81.5345 92.0858 81.4738 92.1932C81.4131 92.303 81.3325 92.4221 81.232 92.5506C81.1316 92.679 81.0067 92.8262 80.8572 92.992L79.1861 94.8487V95.3147H82.5283Z" fill="black"/>
<rect x="66.8322" y="80.3357" width="23.9161" height="23.9161" stroke="#DFDFDF" stroke-width="0.597902"/>
<path d="M101.109 95.3147V90.2138H101.056L99.1259 90.9565V91.5486L100.461 91.0406V95.3147H101.109ZM104.073 92.4525V92.978H104.535C104.696 92.978 104.843 92.9967 104.976 93.034C105.112 93.0714 105.228 93.1286 105.323 93.2057C105.417 93.2828 105.489 93.3797 105.54 93.4965C105.594 93.6109 105.621 93.7475 105.621 93.9064C105.621 94.0675 105.598 94.2076 105.551 94.3268C105.507 94.4435 105.442 94.5416 105.358 94.621C105.274 94.7004 105.173 94.76 105.054 94.7997C104.934 94.8371 104.801 94.8558 104.654 94.8558C104.507 94.8558 104.373 94.8347 104.251 94.7927C104.132 94.7507 104.031 94.6911 103.946 94.614C103.862 94.537 103.797 94.4435 103.75 94.3338C103.706 94.224 103.684 94.1025 103.684 93.9694H103.036C103.036 94.1936 103.078 94.3933 103.162 94.5685C103.248 94.7436 103.364 94.892 103.509 95.0134C103.653 95.1349 103.824 95.2271 104.02 95.2902C104.219 95.3532 104.43 95.3848 104.654 95.3848C104.883 95.3848 105.096 95.3521 105.292 95.2867C105.49 95.2189 105.662 95.1208 105.807 94.9924C105.952 94.8663 106.065 94.7109 106.147 94.5264C106.228 94.3419 106.269 94.1306 106.269 93.8923C106.269 93.7756 106.255 93.6576 106.227 93.5385C106.201 93.4194 106.156 93.3061 106.091 93.1987C106.023 93.0912 105.933 92.9943 105.821 92.9079C105.711 92.8215 105.573 92.7514 105.407 92.6977C105.545 92.6393 105.663 92.5669 105.761 92.4805C105.862 92.3917 105.943 92.2972 106.006 92.1967C106.069 92.0986 106.116 91.997 106.147 91.8919C106.177 91.7868 106.192 91.6852 106.192 91.5871C106.192 91.3513 106.155 91.1434 106.08 90.9636C106.005 90.7837 105.9 90.6331 105.765 90.5116C105.629 90.3902 105.467 90.2991 105.278 90.2384C105.089 90.1753 104.88 90.1438 104.651 90.1438C104.415 90.1438 104.2 90.1811 104.006 90.2559C103.815 90.3283 103.65 90.4275 103.512 90.5537C103.374 90.6821 103.267 90.8328 103.19 91.0056C103.115 91.1761 103.078 91.3583 103.078 91.5521H103.729C103.729 91.419 103.751 91.2987 103.796 91.1913C103.84 91.0838 103.903 90.9916 103.985 90.9145C104.064 90.8374 104.16 90.779 104.272 90.7393C104.387 90.6973 104.513 90.6763 104.651 90.6763C104.793 90.6763 104.919 90.695 105.029 90.7323C105.141 90.7674 105.235 90.8211 105.309 90.8935C105.386 90.9682 105.445 91.0628 105.484 91.1773C105.524 91.2894 105.544 91.4213 105.544 91.5731C105.544 91.7016 105.522 91.8195 105.477 91.927C105.433 92.0344 105.369 92.1267 105.285 92.2037C105.198 92.2808 105.092 92.3415 104.966 92.3859C104.842 92.4303 104.699 92.4525 104.535 92.4525H104.073Z" fill="black"/>
<rect x="90.7483" y="80.3357" width="23.9161" height="23.9161" stroke="#DFDFDF" stroke-width="0.597902"/>
<path d="M125.025 95.3147V90.2138H124.972L123.042 90.9565V91.5486L124.377 91.0406V95.3147H125.025ZM129.859 93.6016V90.2138H129.169L126.885 93.7487V94.1306H129.211V95.3147H129.859V94.1306H130.571V93.6016H129.859ZM127.603 93.6016L129.106 91.2718L129.211 91.0757V93.6016H127.603Z" fill="black"/>
<rect x="114.664" y="80.3357" width="23.9161" height="23.9161" stroke="#DFDFDF" stroke-width="0.597902"/>
<path d="M148.941 95.3147V90.2138H148.888L146.958 90.9565V91.5486L148.293 91.0406V95.3147H148.941ZM151.379 92.7573L151.898 92.8904C151.956 92.839 152.012 92.7935 152.066 92.7538C152.122 92.7141 152.182 92.6802 152.245 92.6522C152.308 92.6241 152.378 92.6031 152.455 92.5891C152.534 92.5727 152.628 92.5646 152.735 92.5646C152.899 92.5646 153.043 92.5938 153.169 92.6522C153.296 92.7105 153.402 92.79 153.488 92.8904C153.575 92.9931 153.64 93.1134 153.684 93.2512C153.731 93.389 153.755 93.5373 153.755 93.6962C153.755 93.8713 153.734 94.0301 153.691 94.1726C153.652 94.3151 153.592 94.4365 153.513 94.537C153.431 94.6397 153.331 94.7191 153.212 94.7752C153.092 94.8289 152.956 94.8558 152.802 94.8558C152.528 94.8558 152.304 94.781 152.129 94.6315C151.956 94.4821 151.85 94.2625 151.81 93.9729H151.194C151.217 94.2088 151.274 94.4155 151.365 94.593C151.459 94.7705 151.578 94.9176 151.723 95.0344C151.865 95.1512 152.029 95.2388 152.213 95.2972C152.398 95.3556 152.594 95.3848 152.802 95.3848C153.073 95.3848 153.308 95.3427 153.509 95.2586C153.71 95.1722 153.877 95.0531 154.01 94.9013C154.141 94.7518 154.239 94.5732 154.305 94.3653C154.37 94.1574 154.403 93.932 154.403 93.6891C154.403 93.4322 154.368 93.1987 154.298 92.9885C154.227 92.7783 154.127 92.5984 153.996 92.449C153.865 92.3018 153.707 92.1874 153.52 92.1056C153.333 92.0239 153.122 91.983 152.886 91.983C152.701 91.983 152.539 92.0052 152.399 92.0496C152.259 92.094 152.138 92.1453 152.038 92.2037L152.182 90.8444H154.252V90.2138H151.635L151.379 92.7573Z" fill="black"/>
<rect x="138.58" y="80.3357" width="23.9161" height="23.9161" stroke="#DFDFDF" stroke-width="0.597902"/>
<path d="M172.857 95.3147V90.2138H172.805L170.874 90.9565V91.5486L172.209 91.0406V95.3147H172.857ZM177.453 90.2103H177.397C177.033 90.2103 176.707 90.2617 176.42 90.3645C176.133 90.4649 175.889 90.6156 175.688 90.8164C175.396 91.1084 175.2 91.4599 175.099 91.8709C174.999 92.282 174.949 92.7 174.949 93.1251V93.4299C174.949 93.6775 174.986 93.925 175.061 94.1726C175.135 94.4178 175.249 94.6327 175.4 94.8172C175.536 94.9854 175.703 95.122 175.901 95.2271C176.1 95.3322 176.33 95.3848 176.592 95.3848C176.851 95.3848 177.079 95.3392 177.275 95.2481C177.473 95.157 177.639 95.0321 177.772 94.8733C177.905 94.7168 178.005 94.5334 178.07 94.3232C178.138 94.113 178.172 93.8888 178.172 93.6506C178.172 93.4427 178.144 93.2384 178.088 93.0375C178.031 92.8367 177.944 92.6568 177.825 92.498C177.706 92.3392 177.554 92.2119 177.369 92.1161C177.185 92.0181 176.965 91.969 176.711 91.969C176.594 91.969 176.482 91.983 176.374 92.011C176.269 92.0367 176.171 92.0718 176.08 92.1161C175.987 92.1629 175.9 92.2177 175.821 92.2808C175.741 92.3415 175.671 92.4081 175.611 92.4805C175.625 92.2563 175.669 92.0379 175.744 91.8254C175.821 91.6128 175.933 91.4295 176.08 91.2753C176.22 91.1282 176.398 91.0114 176.613 90.925C176.828 90.8363 177.089 90.7919 177.397 90.7919H177.453V90.2103ZM176.606 92.5085C176.762 92.5085 176.899 92.5412 177.016 92.6066C177.132 92.672 177.229 92.7596 177.306 92.8694C177.383 92.9791 177.441 93.1053 177.478 93.2477C177.515 93.3879 177.534 93.5327 177.534 93.6821C177.534 93.8503 177.513 94.0068 177.471 94.1516C177.431 94.2941 177.372 94.4167 177.292 94.5194C177.211 94.6222 177.111 94.7028 176.994 94.7612C176.878 94.8196 176.743 94.8487 176.592 94.8487C176.461 94.8487 176.336 94.8184 176.217 94.7577C176.098 94.6946 175.993 94.6035 175.901 94.4844C175.81 94.3653 175.738 94.2193 175.684 94.0465C175.631 93.8713 175.604 93.6716 175.604 93.4474V93.2302C175.643 93.1228 175.697 93.0247 175.765 92.9359C175.833 92.8472 175.911 92.7713 176 92.7082C176.088 92.6452 176.184 92.5961 176.287 92.5611C176.39 92.526 176.496 92.5085 176.606 92.5085Z" fill="black"/>
<rect x="162.497" y="80.3357" width="23.9161" height="23.9161" stroke="#DFDFDF" stroke-width="0.597902"/>
<rect x="19" y="104.252" width="23.9161" height="23.9161" fill="#C4C4C4"/>
<path d="M29.3605 119.231V114.13H29.308L27.3776 114.873V115.465L28.7124 114.957V119.231H29.3605ZM34.7977 114.494V114.13H31.3504V114.697H34.111L32.0055 119.231H32.6852L34.7977 114.494Z" fill="black"/>
<rect x="19" y="104.252" width="23.9161" height="23.9161" stroke="#DFDFDF" stroke-width="0.597902"/>
<rect x="42.9161" y="104.252" width="23.9161" height="23.9161" fill="#C4C4C4"/>
<path d="M53.2766 119.231V114.13H53.2241L51.2937 114.873V115.465L52.6285 114.957V119.231H53.2766ZM58.6227 115.461C58.6227 115.239 58.5842 115.042 58.5071 114.869C58.43 114.694 58.3237 114.547 58.1883 114.428C58.0528 114.309 57.8928 114.217 57.7083 114.154C57.5238 114.091 57.3241 114.06 57.1093 114.06C56.8921 114.06 56.6912 114.091 56.5067 114.154C56.3245 114.217 56.168 114.309 56.0372 114.428C55.9041 114.547 55.8002 114.694 55.7254 114.869C55.6507 115.042 55.6133 115.239 55.6133 115.461C55.6133 115.587 55.6309 115.708 55.6659 115.822C55.7009 115.936 55.75 116.042 55.813 116.137C55.8761 116.235 55.9532 116.324 56.0442 116.404C56.1353 116.481 56.2369 116.547 56.349 116.603C56.2182 116.659 56.1003 116.729 55.9952 116.813C55.8901 116.898 55.8002 116.992 55.7254 117.097C55.6507 117.205 55.5935 117.323 55.5538 117.451C55.5141 117.577 55.4942 117.711 55.4942 117.854C55.4942 118.088 55.5363 118.294 55.6203 118.474C55.7044 118.654 55.82 118.805 55.9672 118.926C56.112 119.05 56.2825 119.143 56.4787 119.206C56.6772 119.269 56.8909 119.301 57.1198 119.301C57.344 119.301 57.5542 119.269 57.7504 119.206C57.9466 119.141 58.1182 119.046 58.2654 118.922C58.4102 118.801 58.5246 118.65 58.6087 118.471C58.6951 118.291 58.7383 118.085 58.7383 117.854C58.7383 117.711 58.7173 117.577 58.6752 117.451C58.6355 117.325 58.5783 117.208 58.5036 117.101C58.4265 116.993 58.3343 116.899 58.2268 116.817C58.1217 116.733 58.0038 116.663 57.873 116.607C57.9477 116.569 58.0178 116.527 58.0832 116.481C58.1486 116.434 58.2081 116.384 58.2619 116.33C58.374 116.218 58.4615 116.088 58.5246 115.941C58.5877 115.792 58.6204 115.632 58.6227 115.461ZM58.0902 117.84C58.0902 117.987 58.0657 118.119 58.0166 118.236C57.9699 118.35 57.9045 118.447 57.8204 118.527C57.734 118.606 57.6313 118.667 57.5121 118.709C57.393 118.751 57.2622 118.772 57.1198 118.772C56.9703 118.772 56.8348 118.751 56.7134 118.709C56.5943 118.667 56.4927 118.606 56.4086 118.527C56.3245 118.447 56.2591 118.35 56.2124 118.236C56.168 118.119 56.1458 117.987 56.1458 117.84C56.1458 117.697 56.168 117.567 56.2124 117.448C56.2591 117.328 56.3245 117.226 56.4086 117.139C56.4927 117.055 56.5943 116.99 56.7134 116.943C56.8325 116.896 56.9656 116.873 57.1128 116.873C57.2552 116.873 57.386 116.896 57.5051 116.943C57.6266 116.99 57.7305 117.055 57.8169 117.139C57.9033 117.226 57.9699 117.328 58.0166 117.448C58.0657 117.567 58.0902 117.697 58.0902 117.84ZM57.9711 115.472C57.9711 115.602 57.9501 115.722 57.908 115.829C57.866 115.936 57.8076 116.028 57.7329 116.102C57.6558 116.179 57.5647 116.239 57.4596 116.281C57.3545 116.321 57.24 116.341 57.1163 116.341C56.9901 116.341 56.8745 116.321 56.7694 116.281C56.6667 116.239 56.5779 116.179 56.5032 116.102C56.4261 116.028 56.3666 115.938 56.3245 115.833C56.2848 115.725 56.265 115.605 56.265 115.472C56.265 115.339 56.2848 115.218 56.3245 115.111C56.3666 115.001 56.4249 114.908 56.4997 114.831C56.5744 114.754 56.6632 114.695 56.7659 114.655C56.8687 114.613 56.9831 114.592 57.1093 114.592C57.2354 114.592 57.351 114.615 57.4561 114.659C57.5612 114.701 57.6523 114.761 57.7293 114.838C57.8041 114.917 57.8625 115.01 57.9045 115.118C57.9489 115.225 57.9711 115.343 57.9711 115.472Z" fill="black"/>
<rect x="42.9161" y="104.252" width="23.9161" height="23.9161" stroke="#DFDFDF" stroke-width="0.597902"/>
<rect x="66.8322" y="104.252" width="23.9161" height="23.9161" fill="#C4C4C4"/>
<path d="M77.1927 119.231V114.13H77.1402L75.2098 114.873V115.465L76.5446 114.957V119.231H77.1927ZM80.097 118.656H80.0304V119.234H80.097C80.5174 119.234 80.8735 119.177 81.1655 119.063C81.4598 118.946 81.6898 118.794 81.8556 118.607C82.1312 118.299 82.3111 117.946 82.3952 117.549C82.4792 117.15 82.5213 116.753 82.5213 116.358V116.123C82.5213 115.845 82.4827 115.567 82.4057 115.29C82.3286 115.009 82.213 114.776 82.0588 114.589C81.928 114.43 81.7657 114.303 81.5719 114.207C81.3804 114.109 81.1538 114.06 80.8922 114.06C80.6306 114.06 80.4006 114.108 80.2021 114.203C80.0059 114.297 79.8424 114.423 79.7116 114.582C79.5785 114.743 79.478 114.931 79.4103 115.146C79.3449 115.358 79.3122 115.585 79.3122 115.826C79.3122 116.031 79.3402 116.235 79.3963 116.439C79.4524 116.642 79.5399 116.824 79.6591 116.985C79.7782 117.146 79.9288 117.277 80.111 117.378C80.2955 117.476 80.5139 117.525 80.7661 117.525C80.8969 117.525 81.0172 117.512 81.1269 117.486C81.2391 117.458 81.3407 117.421 81.4317 117.374C81.5228 117.327 81.6046 117.274 81.677 117.213C81.7494 117.15 81.8136 117.083 81.8697 117.013V117.02C81.858 117.235 81.8241 117.443 81.7681 117.644C81.712 117.845 81.6034 118.033 81.4422 118.208C81.3091 118.35 81.1328 118.461 80.9132 118.541C80.696 118.618 80.4239 118.656 80.097 118.656ZM80.8712 116.989C80.7147 116.989 80.5781 116.955 80.4613 116.887C80.3469 116.817 80.2523 116.726 80.1775 116.614C80.1005 116.502 80.0432 116.374 80.0059 116.232C79.9685 116.087 79.9498 115.94 79.9498 115.79C79.9498 115.622 79.9708 115.466 80.0129 115.321C80.0549 115.174 80.1168 115.047 80.1986 114.939C80.278 114.834 80.3761 114.751 80.4928 114.69C80.6096 114.63 80.7439 114.599 80.8957 114.599C81.0289 114.599 81.1538 114.632 81.2706 114.697C81.3897 114.763 81.4948 114.856 81.5859 114.978C81.6746 115.102 81.7447 115.252 81.7961 115.43C81.8498 115.607 81.8767 115.809 81.8767 116.036V116.246C81.837 116.356 81.7821 116.456 81.712 116.547C81.6443 116.636 81.5672 116.713 81.4808 116.778C81.392 116.846 81.2951 116.899 81.19 116.936C81.0872 116.971 80.981 116.989 80.8712 116.989Z" fill="black"/>
<rect x="66.8322" y="104.252" width="23.9161" height="23.9161" stroke="#DFDFDF" stroke-width="0.597902"/>
<rect x="90.7483" y="104.252" width="23.9161" height="23.9161" fill="#C4C4C4"/>
<path d="M102.444 118.231H99.1014V117.765L100.867 115.803C101.129 115.506 101.308 115.266 101.407 115.081C101.507 114.894 101.557 114.702 101.557 114.503C101.557 114.237 101.477 114.019 101.315 113.848C101.154 113.678 100.939 113.592 100.671 113.592C100.349 113.592 100.097 113.685 99.9176 113.869C99.7401 114.051 99.6514 114.306 99.6514 114.633H99.0033C99.0033 114.163 99.1539 113.784 99.4552 113.494C99.7588 113.205 100.164 113.06 100.671 113.06C101.145 113.06 101.52 113.185 101.795 113.435C102.071 113.682 102.209 114.013 102.209 114.426C102.209 114.928 101.889 115.526 101.249 116.22L99.8826 117.702H102.444V118.231ZM106.329 116.055C106.329 116.814 106.199 117.378 105.94 117.747C105.681 118.116 105.275 118.301 104.724 118.301C104.18 118.301 103.777 118.121 103.516 117.761C103.254 117.399 103.119 116.86 103.109 116.143V115.277C103.109 114.528 103.239 113.971 103.498 113.606C103.757 113.242 104.164 113.06 104.717 113.06C105.266 113.06 105.67 113.236 105.929 113.589C106.189 113.939 106.322 114.481 106.329 115.214V116.055ZM105.681 115.169C105.681 114.62 105.604 114.221 105.449 113.971C105.295 113.718 105.051 113.592 104.717 113.592C104.386 113.592 104.144 113.717 103.992 113.967C103.84 114.217 103.762 114.601 103.757 115.12V116.157C103.757 116.708 103.837 117.116 103.996 117.379C104.157 117.641 104.4 117.772 104.724 117.772C105.044 117.772 105.281 117.648 105.435 117.4C105.592 117.153 105.674 116.763 105.681 116.23V115.169Z" fill="black"/>
<rect x="90.7483" y="104.252" width="23.9161" height="23.9161" stroke="#DFDFDF" stroke-width="0.597902"/>
<rect x="114.664" y="104.252" width="23.9161" height="23.9161" fill="#C4C4C4"/>
<path d="M126.051 119.231V118.702H123.49L124.86 117.216C124.989 117.076 125.11 116.936 125.225 116.796C125.341 116.653 125.444 116.51 125.533 116.365C125.619 116.22 125.688 116.074 125.74 115.927C125.791 115.778 125.817 115.627 125.817 115.475C125.817 115.272 125.78 115.084 125.708 114.911C125.638 114.738 125.536 114.589 125.403 114.463C125.27 114.337 125.107 114.239 124.913 114.168C124.721 114.096 124.505 114.06 124.265 114.06C124.003 114.06 123.77 114.102 123.564 114.186C123.361 114.27 123.189 114.383 123.049 114.526C122.907 114.668 122.798 114.835 122.723 115.027C122.648 115.216 122.611 115.418 122.611 115.633H123.263C123.263 115.474 123.283 115.33 123.322 115.202C123.364 115.073 123.427 114.964 123.511 114.873C123.593 114.784 123.696 114.715 123.82 114.666C123.946 114.617 124.094 114.592 124.265 114.592C124.405 114.592 124.53 114.617 124.64 114.666C124.752 114.713 124.847 114.777 124.927 114.859C125.004 114.94 125.062 115.037 125.102 115.149C125.144 115.259 125.165 115.377 125.165 115.503C125.165 115.606 125.152 115.706 125.126 115.805C125.101 115.9 125.058 116.002 124.997 116.109C124.936 116.219 124.856 116.338 124.755 116.467C124.655 116.595 124.53 116.742 124.38 116.908L122.709 118.765V119.231H126.051ZM129.334 119.231V114.13H129.281L127.351 114.873V115.465L128.686 114.957V119.231H129.334Z" fill="black"/>
<rect x="114.664" y="104.252" width="23.9161" height="23.9161" stroke="#DFDFDF" stroke-width="0.597902"/>
<rect x="138.58" y="104.252" width="23.9161" height="23.9161" fill="#C4C4C4"/>
<path d="M149.967 119.231V118.702H147.406L148.776 117.216C148.905 117.076 149.026 116.936 149.141 116.796C149.257 116.653 149.36 116.51 149.449 116.365C149.535 116.22 149.604 116.074 149.656 115.927C149.707 115.778 149.733 115.627 149.733 115.475C149.733 115.272 149.697 115.084 149.624 114.911C149.554 114.738 149.452 114.589 149.319 114.463C149.186 114.337 149.023 114.239 148.829 114.168C148.637 114.096 148.421 114.06 148.181 114.06C147.919 114.06 147.686 114.102 147.48 114.186C147.277 114.27 147.105 114.383 146.965 114.526C146.823 114.668 146.714 114.835 146.639 115.027C146.565 115.216 146.527 115.418 146.527 115.633H147.179C147.179 115.474 147.199 115.33 147.238 115.202C147.28 115.073 147.343 114.964 147.428 114.873C147.509 114.784 147.612 114.715 147.736 114.666C147.862 114.617 148.01 114.592 148.181 114.592C148.321 114.592 148.446 114.617 148.556 114.666C148.668 114.713 148.763 114.777 148.843 114.859C148.92 114.94 148.978 115.037 149.018 115.149C149.06 115.259 149.081 115.377 149.081 115.503C149.081 115.606 149.068 115.706 149.043 115.805C149.017 115.9 148.974 116.002 148.913 116.109C148.852 116.219 148.772 116.338 148.671 116.467C148.571 116.595 148.446 116.742 148.296 116.908L146.625 118.765V119.231H149.967ZM154.277 119.231V118.702H151.716L153.085 117.216C153.214 117.076 153.335 116.936 153.45 116.796C153.567 116.653 153.669 116.51 153.758 116.365C153.844 116.22 153.913 116.074 153.965 115.927C154.016 115.778 154.042 115.627 154.042 115.475C154.042 115.272 154.006 115.084 153.933 114.911C153.863 114.738 153.762 114.589 153.628 114.463C153.495 114.337 153.332 114.239 153.138 114.168C152.946 114.096 152.73 114.06 152.49 114.06C152.228 114.06 151.995 114.102 151.789 114.186C151.586 114.27 151.414 114.383 151.274 114.526C151.132 114.668 151.023 114.835 150.948 115.027C150.874 115.216 150.836 115.418 150.836 115.633H151.488C151.488 115.474 151.508 115.33 151.547 115.202C151.589 115.073 151.653 114.964 151.737 114.873C151.818 114.784 151.921 114.715 152.045 114.666C152.171 114.617 152.319 114.592 152.49 114.592C152.63 114.592 152.755 114.617 152.865 114.666C152.977 114.713 153.073 114.777 153.152 114.859C153.229 114.94 153.287 115.037 153.327 115.149C153.369 115.259 153.39 115.377 153.39 115.503C153.39 115.606 153.377 115.706 153.352 115.805C153.326 115.9 153.283 116.002 153.222 116.109C153.161 116.219 153.081 116.338 152.98 116.467C152.88 116.595 152.755 116.742 152.605 116.908L150.934 118.765V119.231H154.277Z" fill="black"/>
<rect x="138.58" y="104.252" width="23.9161" height="23.9161" stroke="#DFDFDF" stroke-width="0.597902"/>
<rect x="162.497" y="104.252" width="23.9161" height="23.9161" fill="#C4C4C4"/>
<path d="M173.884 119.231V118.702H171.323L172.692 117.216C172.821 117.076 172.942 116.936 173.057 116.796C173.174 116.653 173.276 116.51 173.365 116.365C173.451 116.22 173.52 116.074 173.572 115.927C173.623 115.778 173.649 115.627 173.649 115.475C173.649 115.272 173.613 115.084 173.54 114.911C173.47 114.738 173.369 114.589 173.235 114.463C173.102 114.337 172.939 114.239 172.745 114.168C172.553 114.096 172.337 114.06 172.097 114.06C171.835 114.06 171.602 114.102 171.396 114.186C171.193 114.27 171.021 114.383 170.881 114.526C170.739 114.668 170.63 114.835 170.555 115.027C170.481 115.216 170.443 115.418 170.443 115.633H171.095C171.095 115.474 171.115 115.33 171.154 115.202C171.196 115.073 171.26 114.964 171.344 114.873C171.425 114.784 171.528 114.715 171.652 114.666C171.778 114.617 171.926 114.592 172.097 114.592C172.237 114.592 172.362 114.617 172.472 114.666C172.584 114.713 172.68 114.777 172.759 114.859C172.836 114.94 172.894 115.037 172.934 115.149C172.976 115.259 172.997 115.377 172.997 115.503C172.997 115.606 172.984 115.706 172.959 115.805C172.933 115.9 172.89 116.002 172.829 116.109C172.768 116.219 172.688 116.338 172.587 116.467C172.487 116.595 172.362 116.742 172.212 116.908L170.541 118.765V119.231H173.884ZM175.821 116.369V116.894H176.283C176.444 116.894 176.592 116.913 176.725 116.95C176.86 116.987 176.976 117.045 177.072 117.122C177.165 117.199 177.237 117.296 177.289 117.413C177.342 117.527 177.369 117.664 177.369 117.822C177.369 117.984 177.346 118.124 177.299 118.243C177.255 118.36 177.191 118.458 177.107 118.537C177.023 118.617 176.921 118.676 176.802 118.716C176.683 118.753 176.55 118.772 176.402 118.772C176.255 118.772 176.121 118.751 176 118.709C175.88 118.667 175.779 118.607 175.695 118.53C175.611 118.453 175.545 118.36 175.499 118.25C175.454 118.14 175.432 118.019 175.432 117.885H174.784C174.784 118.11 174.826 118.309 174.91 118.485C174.996 118.66 175.112 118.808 175.257 118.929C175.402 119.051 175.572 119.143 175.768 119.206C175.967 119.269 176.178 119.301 176.402 119.301C176.631 119.301 176.844 119.268 177.04 119.203C177.239 119.135 177.41 119.037 177.555 118.908C177.7 118.782 177.813 118.627 177.895 118.443C177.977 118.258 178.017 118.047 178.017 117.808C178.017 117.692 178.003 117.574 177.975 117.455C177.95 117.335 177.904 117.222 177.839 117.115C177.771 117.007 177.681 116.91 177.569 116.824C177.459 116.738 177.321 116.667 177.156 116.614C177.293 116.555 177.411 116.483 177.509 116.397C177.61 116.308 177.692 116.213 177.755 116.113C177.818 116.015 177.864 115.913 177.895 115.808C177.925 115.703 177.94 115.601 177.94 115.503C177.94 115.267 177.903 115.059 177.828 114.88C177.754 114.7 177.648 114.549 177.513 114.428C177.378 114.306 177.215 114.215 177.026 114.154C176.837 114.091 176.628 114.06 176.399 114.06C176.163 114.06 175.948 114.097 175.754 114.172C175.563 114.244 175.398 114.344 175.26 114.47C175.123 114.598 175.015 114.749 174.938 114.922C174.863 115.092 174.826 115.274 174.826 115.468H175.478C175.478 115.335 175.5 115.215 175.544 115.107C175.588 115 175.652 114.908 175.733 114.831C175.813 114.754 175.908 114.695 176.021 114.655C176.135 114.613 176.261 114.592 176.399 114.592C176.541 114.592 176.668 114.611 176.777 114.648C176.889 114.683 176.983 114.737 177.058 114.81C177.135 114.884 177.193 114.979 177.233 115.093C177.272 115.205 177.292 115.337 177.292 115.489C177.292 115.618 177.27 115.736 177.226 115.843C177.181 115.95 177.117 116.043 177.033 116.12C176.947 116.197 176.84 116.258 176.714 116.302C176.59 116.346 176.447 116.369 176.283 116.369H175.821Z" fill="black"/>
<rect x="162.497" y="104.252" width="23.9161" height="23.9161" stroke="#DFDFDF" stroke-width="0.597902"/>
<rect width="167.413" height="23.9161" transform="translate(19 128.168)" fill="#C4C4C4"/>
<path d="M30.387 143.147V142.618H27.8261L29.1959 141.132C29.3243 140.992 29.4458 140.852 29.5602 140.712C29.677 140.57 29.7798 140.426 29.8685 140.281C29.9549 140.136 30.0238 139.99 30.0752 139.843C30.1266 139.694 30.1523 139.543 30.1523 139.391C30.1523 139.188 30.1161 139 30.0437 138.827C29.9736 138.654 29.872 138.505 29.7389 138.379C29.6058 138.253 29.4423 138.155 29.2484 138.085C29.0569 138.012 28.8409 137.976 28.6003 137.976C28.3387 137.976 28.1052 138.018 27.8996 138.102C27.6964 138.186 27.5248 138.299 27.3846 138.442C27.2422 138.584 27.1336 138.751 27.0588 138.943C26.9841 139.132 26.9467 139.334 26.9467 139.549H27.5983C27.5983 139.39 27.6182 139.246 27.6579 139.118C27.6999 138.99 27.763 138.88 27.8471 138.789C27.9288 138.7 28.0316 138.631 28.1554 138.582C28.2815 138.533 28.4298 138.508 28.6003 138.508C28.7404 138.508 28.8654 138.533 28.9752 138.582C29.0873 138.629 29.183 138.693 29.2624 138.775C29.3395 138.856 29.3979 138.953 29.4376 139.065C29.4796 139.175 29.5007 139.293 29.5007 139.419C29.5007 139.522 29.4878 139.622 29.4621 139.721C29.4364 139.816 29.3932 139.918 29.3325 140.025C29.2718 140.135 29.1912 140.254 29.0908 140.383C28.9903 140.511 28.8654 140.658 28.7159 140.824L27.0448 142.681V143.147H30.387ZM34.1951 141.434V138.046H33.505L31.2208 141.581V141.963H33.547V143.147H34.1951V141.963H34.9063V141.434H34.1951ZM31.939 141.434L33.4419 139.104L33.547 138.908V141.434H31.939Z" fill="black"/>
<rect x="19" y="128.168" width="23.9161" height="23.9161" stroke="#DFDFDF" stroke-width="0.597902"/>
<path d="M54.3031 143.147V142.618H51.7422L53.112 141.132C53.2404 140.992 53.3619 140.852 53.4763 140.712C53.5931 140.57 53.6958 140.426 53.7846 140.281C53.871 140.136 53.9399 139.99 53.9913 139.843C54.0427 139.694 54.0684 139.543 54.0684 139.391C54.0684 139.188 54.0322 139 53.9598 138.827C53.8897 138.654 53.7881 138.505 53.655 138.379C53.5218 138.253 53.3584 138.155 53.1645 138.085C52.973 138.012 52.757 137.976 52.5164 137.976C52.2548 137.976 52.0213 138.018 51.8157 138.102C51.6125 138.186 51.4409 138.299 51.3007 138.442C51.1583 138.584 51.0497 138.751 50.9749 138.943C50.9002 139.132 50.8628 139.334 50.8628 139.549H51.5144C51.5144 139.39 51.5343 139.246 51.574 139.118C51.616 138.99 51.6791 138.88 51.7632 138.789C51.8449 138.7 51.9477 138.631 52.0715 138.582C52.1976 138.533 52.3459 138.508 52.5164 138.508C52.6565 138.508 52.7815 138.533 52.8912 138.582C53.0034 138.629 53.0991 138.693 53.1785 138.775C53.2556 138.856 53.314 138.953 53.3537 139.065C53.3957 139.175 53.4167 139.293 53.4167 139.419C53.4167 139.522 53.4039 139.622 53.3782 139.721C53.3525 139.816 53.3093 139.918 53.2486 140.025C53.1879 140.135 53.1073 140.254 53.0069 140.383C52.9064 140.511 52.7815 140.658 52.632 140.824L50.9609 142.681V143.147H54.3031ZM55.7149 140.589L56.2334 140.723C56.2918 140.671 56.3479 140.626 56.4016 140.586C56.4576 140.546 56.5172 140.512 56.5803 140.484C56.6433 140.456 56.7134 140.435 56.7905 140.421C56.8699 140.405 56.9633 140.397 57.0707 140.397C57.2342 140.397 57.379 140.426 57.5051 140.484C57.6313 140.543 57.7375 140.622 57.8239 140.723C57.9104 140.825 57.9757 140.946 58.0201 141.083C58.0668 141.221 58.0902 141.369 58.0902 141.528C58.0902 141.703 58.0692 141.862 58.0271 142.005C57.9874 142.147 57.9279 142.269 57.8485 142.369C57.7667 142.472 57.6663 142.551 57.5472 142.607C57.4281 142.661 57.2914 142.688 57.1373 142.688C56.864 142.688 56.6398 142.613 56.4646 142.464C56.2918 142.314 56.1855 142.095 56.1458 141.805H55.5293C55.5526 142.041 55.6098 142.248 55.7009 142.425C55.7943 142.603 55.9135 142.75 56.0583 142.867C56.2007 142.983 56.3642 143.071 56.5487 143.129C56.7332 143.188 56.9294 143.217 57.1373 143.217C57.4082 143.217 57.6441 143.175 57.845 143.091C58.0458 143.004 58.2128 142.885 58.3459 142.733C58.4767 142.584 58.5748 142.405 58.6402 142.197C58.7056 141.99 58.7383 141.764 58.7383 141.521C58.7383 141.264 58.7033 141.031 58.6332 140.821C58.5631 140.61 58.4627 140.431 58.3319 140.281C58.2011 140.134 58.0423 140.02 57.8555 139.938C57.6686 139.856 57.4573 139.815 57.2214 139.815C57.0369 139.815 56.8745 139.837 56.7344 139.882C56.5943 139.926 56.474 139.978 56.3736 140.036L56.5172 138.677H58.5877V138.046H55.9707L55.7149 140.589Z" fill="black"/>
<rect x="42.9161" y="128.168" width="23.9161" height="23.9161" stroke="#DFDFDF" stroke-width="0.597902"/>
<path d="M78.2192 143.147V142.618H75.6582L77.028 141.132C77.1565 140.992 77.278 140.852 77.3924 140.712C77.5092 140.57 77.6119 140.426 77.7007 140.281C77.7871 140.136 77.856 139.99 77.9074 139.843C77.9588 139.694 77.9845 139.543 77.9845 139.391C77.9845 139.188 77.9483 139 77.8759 138.827C77.8058 138.654 77.7042 138.505 77.5711 138.379C77.4379 138.253 77.2744 138.155 77.0806 138.085C76.8891 138.012 76.673 137.976 76.4325 137.976C76.1709 137.976 75.9373 138.018 75.7318 138.102C75.5286 138.186 75.357 138.299 75.2168 138.442C75.0744 138.584 74.9658 138.751 74.891 138.943C74.8163 139.132 74.7789 139.334 74.7789 139.549H75.4305C75.4305 139.39 75.4504 139.246 75.4901 139.118C75.5321 138.99 75.5952 138.88 75.6793 138.789C75.761 138.7 75.8638 138.631 75.9876 138.582C76.1137 138.533 76.262 138.508 76.4325 138.508C76.5726 138.508 76.6976 138.533 76.8073 138.582C76.9194 138.629 77.0152 138.693 77.0946 138.775C77.1717 138.856 77.2301 138.953 77.2698 139.065C77.3118 139.175 77.3328 139.293 77.3328 139.419C77.3328 139.522 77.32 139.622 77.2943 139.721C77.2686 139.816 77.2254 139.918 77.1647 140.025C77.104 140.135 77.0234 140.254 76.9229 140.383C76.8225 140.511 76.6976 140.658 76.5481 140.824L74.877 142.681V143.147H78.2192ZM81.7891 138.042H81.733C81.3687 138.042 81.0429 138.094 80.7556 138.197C80.4683 138.297 80.2243 138.448 80.0234 138.649C79.7315 138.941 79.5353 139.292 79.4348 139.703C79.3344 140.114 79.2842 140.532 79.2842 140.957V141.262C79.2842 141.51 79.3216 141.757 79.3963 142.005C79.471 142.25 79.5843 142.465 79.7361 142.649C79.8716 142.818 80.0386 142.954 80.2371 143.059C80.4356 143.164 80.6657 143.217 80.9273 143.217C81.1865 143.217 81.4142 143.171 81.6104 143.08C81.8089 142.989 81.9748 142.864 82.1079 142.705C82.241 142.549 82.3403 142.366 82.4057 142.155C82.4734 141.945 82.5073 141.721 82.5073 141.483C82.5073 141.275 82.4792 141.071 82.4232 140.87C82.3671 140.669 82.2795 140.489 82.1604 140.33C82.0413 140.171 81.8895 140.044 81.705 139.948C81.5205 139.85 81.3009 139.801 81.0464 139.801C80.9296 139.801 80.8175 139.815 80.7101 139.843C80.605 139.869 80.5069 139.904 80.4158 139.948C80.3223 139.995 80.2359 140.05 80.1565 140.113C80.0771 140.174 80.007 140.24 79.9463 140.313C79.9603 140.088 80.0047 139.87 80.0795 139.658C80.1565 139.445 80.2686 139.262 80.4158 139.108C80.5559 138.96 80.7334 138.844 80.9483 138.757C81.1631 138.668 81.4247 138.624 81.733 138.624H81.7891V138.042ZM80.9413 140.341C81.0978 140.341 81.2344 140.373 81.3512 140.439C81.4679 140.504 81.5649 140.592 81.6419 140.702C81.719 140.811 81.7762 140.937 81.8136 141.08C81.851 141.22 81.8697 141.365 81.8697 141.514C81.8697 141.682 81.8486 141.839 81.8066 141.984C81.7669 142.126 81.7073 142.249 81.6279 142.352C81.5462 142.454 81.4469 142.535 81.3301 142.593C81.2134 142.652 81.0791 142.681 80.9273 142.681C80.7965 142.681 80.6715 142.651 80.5524 142.59C80.4333 142.527 80.3282 142.436 80.2371 142.317C80.146 142.197 80.0736 142.051 80.0199 141.879C79.9662 141.703 79.9393 141.504 79.9393 141.28V141.062C79.979 140.955 80.0327 140.857 80.1005 140.768C80.1682 140.679 80.2464 140.603 80.3352 140.54C80.4239 140.477 80.5197 140.428 80.6225 140.393C80.7252 140.358 80.8315 140.341 80.9413 140.341Z" fill="black"/>
<rect x="66.8322" y="128.168" width="23.9161" height="23.9161" stroke="#DFDFDF" stroke-width="0.597902"/>
<path d="M102.135 143.147V142.618H99.5743L100.944 141.132C101.073 140.992 101.194 140.852 101.308 140.712C101.425 140.57 101.528 140.426 101.617 140.281C101.703 140.136 101.772 139.99 101.823 139.843C101.875 139.694 101.901 139.543 101.901 139.391C101.901 139.188 101.864 139 101.792 138.827C101.722 138.654 101.62 138.505 101.487 138.379C101.354 138.253 101.191 138.155 100.997 138.085C100.805 138.012 100.589 137.976 100.349 137.976C100.087 137.976 99.8534 138.018 99.6479 138.102C99.4447 138.186 99.273 138.299 99.1329 138.442C98.9904 138.584 98.8818 138.751 98.8071 138.943C98.7324 139.132 98.695 139.334 98.695 139.549H99.3466C99.3466 139.39 99.3665 139.246 99.4062 139.118C99.4482 138.99 99.5113 138.88 99.5953 138.789C99.6771 138.7 99.7799 138.631 99.9036 138.582C100.03 138.533 100.178 138.508 100.349 138.508C100.489 138.508 100.614 138.533 100.723 138.582C100.836 138.629 100.931 138.693 101.011 138.775C101.088 138.856 101.146 138.953 101.186 139.065C101.228 139.175 101.249 139.293 101.249 139.419C101.249 139.522 101.236 139.622 101.21 139.721C101.185 139.816 101.141 139.918 101.081 140.025C101.02 140.135 100.939 140.254 100.839 140.383C100.739 140.511 100.614 140.658 100.464 140.824L98.7931 142.681V143.147H102.135ZM106.546 138.41V138.046H103.099V138.614H105.859L103.754 143.147H104.433L106.546 138.41Z" fill="black"/>
<rect x="90.7483" y="128.168" width="23.9161" height="23.9161" stroke="#DFDFDF" stroke-width="0.597902"/>
<path d="M126.051 143.147V142.618H123.49L124.86 141.132C124.989 140.992 125.11 140.852 125.225 140.712C125.341 140.57 125.444 140.426 125.533 140.281C125.619 140.136 125.688 139.99 125.74 139.843C125.791 139.694 125.817 139.543 125.817 139.391C125.817 139.188 125.78 139 125.708 138.827C125.638 138.654 125.536 138.505 125.403 138.379C125.27 138.253 125.107 138.155 124.913 138.085C124.721 138.012 124.505 137.976 124.265 137.976C124.003 137.976 123.77 138.018 123.564 138.102C123.361 138.186 123.189 138.299 123.049 138.442C122.907 138.584 122.798 138.751 122.723 138.943C122.648 139.132 122.611 139.334 122.611 139.549H123.263C123.263 139.39 123.283 139.246 123.322 139.118C123.364 138.99 123.427 138.88 123.511 138.789C123.593 138.7 123.696 138.631 123.82 138.582C123.946 138.533 124.094 138.508 124.265 138.508C124.405 138.508 124.53 138.533 124.64 138.582C124.752 138.629 124.847 138.693 124.927 138.775C125.004 138.856 125.062 138.953 125.102 139.065C125.144 139.175 125.165 139.293 125.165 139.419C125.165 139.522 125.152 139.622 125.126 139.721C125.101 139.816 125.058 139.918 124.997 140.025C124.936 140.135 124.856 140.254 124.755 140.383C124.655 140.511 124.53 140.658 124.38 140.824L122.709 142.681V143.147H126.051ZM130.371 139.377C130.371 139.155 130.332 138.958 130.255 138.785C130.178 138.61 130.072 138.463 129.937 138.344C129.801 138.225 129.641 138.134 129.457 138.071C129.272 138.007 129.072 137.976 128.858 137.976C128.64 137.976 128.439 138.007 128.255 138.071C128.073 138.134 127.916 138.225 127.785 138.344C127.652 138.463 127.548 138.61 127.474 138.785C127.399 138.958 127.362 139.155 127.362 139.377C127.362 139.503 127.379 139.624 127.414 139.738C127.449 139.853 127.498 139.958 127.561 140.053C127.624 140.152 127.701 140.24 127.793 140.32C127.884 140.397 127.985 140.463 128.097 140.519C127.967 140.575 127.849 140.645 127.743 140.73C127.638 140.814 127.548 140.908 127.474 141.013C127.399 141.121 127.342 141.239 127.302 141.367C127.262 141.493 127.242 141.628 127.242 141.77C127.242 142.004 127.285 142.21 127.369 142.39C127.453 142.57 127.568 142.721 127.715 142.842C127.86 142.966 128.031 143.059 128.227 143.122C128.425 143.185 128.639 143.217 128.868 143.217C129.092 143.217 129.302 143.185 129.499 143.122C129.695 143.057 129.866 142.962 130.014 142.839C130.158 142.717 130.273 142.566 130.357 142.387C130.443 142.207 130.487 142.001 130.487 141.77C130.487 141.628 130.466 141.493 130.424 141.367C130.384 141.241 130.327 141.124 130.252 141.017C130.175 140.909 130.083 140.815 129.975 140.733C129.87 140.649 129.752 140.579 129.621 140.523C129.696 140.485 129.766 140.443 129.831 140.397C129.897 140.35 129.956 140.3 130.01 140.246C130.122 140.134 130.21 140.004 130.273 139.857C130.336 139.708 130.369 139.548 130.371 139.377ZM129.838 141.756C129.838 141.903 129.814 142.035 129.765 142.152C129.718 142.266 129.653 142.363 129.569 142.443C129.482 142.522 129.38 142.583 129.26 142.625C129.141 142.667 129.01 142.688 128.868 142.688C128.719 142.688 128.583 142.667 128.462 142.625C128.343 142.583 128.241 142.522 128.157 142.443C128.073 142.363 128.007 142.266 127.961 142.152C127.916 142.035 127.894 141.903 127.894 141.756C127.894 141.614 127.916 141.483 127.961 141.364C128.007 141.245 128.073 141.142 128.157 141.055C128.241 140.971 128.343 140.906 128.462 140.859C128.581 140.812 128.714 140.789 128.861 140.789C129.003 140.789 129.134 140.812 129.253 140.859C129.375 140.906 129.479 140.971 129.565 141.055C129.652 141.142 129.718 141.245 129.765 141.364C129.814 141.483 129.838 141.614 129.838 141.756ZM129.719 139.388C129.719 139.519 129.698 139.638 129.656 139.745C129.614 139.853 129.556 139.944 129.481 140.018C129.404 140.095 129.313 140.155 129.208 140.197C129.103 140.237 128.988 140.257 128.865 140.257C128.738 140.257 128.623 140.237 128.518 140.197C128.415 140.155 128.326 140.095 128.251 140.018C128.174 139.944 128.115 139.854 128.073 139.749C128.033 139.641 128.013 139.521 128.013 139.388C128.013 139.255 128.033 139.134 128.073 139.027C128.115 138.917 128.173 138.824 128.248 138.747C128.323 138.67 128.411 138.611 128.514 138.571C128.617 138.529 128.731 138.508 128.858 138.508C128.984 138.508 129.099 138.531 129.204 138.575C129.309 138.617 129.401 138.677 129.478 138.754C129.552 138.833 129.611 138.927 129.653 139.034C129.697 139.141 129.719 139.259 129.719 139.388Z" fill="black"/>
<rect x="114.664" y="128.168" width="23.9161" height="23.9161" stroke="#DFDFDF" stroke-width="0.597902"/>
<path d="M149.967 143.147V142.618H147.406L148.776 141.132C148.905 140.992 149.026 140.852 149.141 140.712C149.257 140.57 149.36 140.426 149.449 140.281C149.535 140.136 149.604 139.99 149.656 139.843C149.707 139.694 149.733 139.543 149.733 139.391C149.733 139.188 149.697 139 149.624 138.827C149.554 138.654 149.452 138.505 149.319 138.379C149.186 138.253 149.023 138.155 148.829 138.085C148.637 138.012 148.421 137.976 148.181 137.976C147.919 137.976 147.686 138.018 147.48 138.102C147.277 138.186 147.105 138.299 146.965 138.442C146.823 138.584 146.714 138.751 146.639 138.943C146.565 139.132 146.527 139.334 146.527 139.549H147.179C147.179 139.39 147.199 139.246 147.238 139.118C147.28 138.99 147.343 138.88 147.428 138.789C147.509 138.7 147.612 138.631 147.736 138.582C147.862 138.533 148.01 138.508 148.181 138.508C148.321 138.508 148.446 138.533 148.556 138.582C148.668 138.629 148.763 138.693 148.843 138.775C148.92 138.856 148.978 138.953 149.018 139.065C149.06 139.175 149.081 139.293 149.081 139.419C149.081 139.522 149.068 139.622 149.043 139.721C149.017 139.816 148.974 139.918 148.913 140.025C148.852 140.135 148.772 140.254 148.671 140.383C148.571 140.511 148.446 140.658 148.296 140.824L146.625 142.681V143.147H149.967ZM151.845 142.572H151.779V143.15H151.845C152.266 143.15 152.622 143.093 152.914 142.979C153.208 142.862 153.438 142.71 153.604 142.523C153.879 142.215 154.059 141.862 154.143 141.465C154.227 141.066 154.27 140.669 154.27 140.274V140.039C154.27 139.761 154.231 139.484 154.154 139.206C154.077 138.925 153.961 138.692 153.807 138.505C153.676 138.346 153.514 138.219 153.32 138.123C153.129 138.025 152.902 137.976 152.64 137.976C152.379 137.976 152.149 138.024 151.95 138.12C151.754 138.213 151.591 138.339 151.46 138.498C151.327 138.659 151.226 138.847 151.159 139.062C151.093 139.275 151.06 139.501 151.06 139.742C151.06 139.947 151.088 140.152 151.145 140.355C151.201 140.558 151.288 140.74 151.407 140.901C151.526 141.062 151.677 141.193 151.859 141.294C152.044 141.392 152.262 141.441 152.514 141.441C152.645 141.441 152.765 141.428 152.875 141.402C152.987 141.374 153.089 141.337 153.18 141.29C153.271 141.243 153.353 141.19 153.425 141.129C153.498 141.066 153.562 140.999 153.618 140.929V140.936C153.606 141.151 153.572 141.359 153.516 141.56C153.46 141.761 153.352 141.949 153.19 142.124C153.057 142.266 152.881 142.377 152.661 142.457C152.444 142.534 152.172 142.572 151.845 142.572ZM152.619 140.905C152.463 140.905 152.326 140.871 152.21 140.803C152.095 140.733 152.001 140.642 151.926 140.53C151.849 140.418 151.791 140.29 151.754 140.148C151.717 140.003 151.698 139.856 151.698 139.707C151.698 139.538 151.719 139.382 151.761 139.237C151.803 139.09 151.865 138.963 151.947 138.855C152.026 138.75 152.124 138.667 152.241 138.607C152.358 138.546 152.492 138.515 152.644 138.515C152.777 138.515 152.902 138.548 153.019 138.614C153.138 138.679 153.243 138.772 153.334 138.894C153.423 139.018 153.493 139.168 153.544 139.346C153.598 139.523 153.625 139.725 153.625 139.952V140.162C153.585 140.272 153.53 140.372 153.46 140.463C153.393 140.552 153.315 140.629 153.229 140.695C153.14 140.762 153.043 140.815 152.938 140.852C152.835 140.887 152.729 140.905 152.619 140.905Z" fill="black"/>
<rect x="138.58" y="128.168" width="23.9161" height="23.9161" stroke="#DFDFDF" stroke-width="0.597902"/>
<rect x="162.497" y="128.168" width="23.9161" height="23.9161" fill="white"/>
<path d="M171.512 140.285V140.81H171.974C172.135 140.81 172.283 140.829 172.416 140.866C172.551 140.904 172.667 140.961 172.762 141.038C172.856 141.115 172.928 141.212 172.98 141.329C173.033 141.443 173.06 141.58 173.06 141.739C173.06 141.9 173.037 142.04 172.99 142.159C172.946 142.276 172.882 142.374 172.798 142.453C172.713 142.533 172.612 142.592 172.493 142.632C172.374 142.669 172.24 142.688 172.093 142.688C171.946 142.688 171.812 142.667 171.69 142.625C171.571 142.583 171.47 142.523 171.386 142.446C171.302 142.369 171.236 142.276 171.189 142.166C171.145 142.056 171.123 141.935 171.123 141.802H170.475C170.475 142.026 170.517 142.225 170.601 142.401C170.687 142.576 170.803 142.724 170.948 142.846C171.093 142.967 171.263 143.059 171.459 143.122C171.658 143.185 171.869 143.217 172.093 143.217C172.322 143.217 172.535 143.184 172.731 143.119C172.929 143.051 173.101 142.953 173.246 142.825C173.391 142.698 173.504 142.543 173.586 142.359C173.667 142.174 173.708 141.963 173.708 141.724C173.708 141.608 173.694 141.49 173.666 141.371C173.641 141.252 173.595 141.138 173.53 141.031C173.462 140.923 173.372 140.826 173.26 140.74C173.15 140.654 173.012 140.584 172.847 140.53C172.984 140.471 173.102 140.399 173.2 140.313C173.301 140.224 173.383 140.129 173.446 140.029C173.509 139.931 173.555 139.829 173.586 139.724C173.616 139.619 173.631 139.517 173.631 139.419C173.631 139.183 173.594 138.976 173.519 138.796C173.444 138.616 173.339 138.465 173.204 138.344C173.068 138.222 172.906 138.131 172.717 138.071C172.528 138.007 172.319 137.976 172.09 137.976C171.854 137.976 171.639 138.013 171.445 138.088C171.254 138.16 171.089 138.26 170.951 138.386C170.813 138.514 170.706 138.665 170.629 138.838C170.554 139.008 170.517 139.19 170.517 139.384H171.168C171.168 139.251 171.191 139.131 171.235 139.023C171.279 138.916 171.342 138.824 171.424 138.747C171.504 138.67 171.599 138.611 171.711 138.571C171.826 138.529 171.952 138.508 172.09 138.508C172.232 138.508 172.358 138.527 172.468 138.564C172.58 138.6 172.674 138.653 172.748 138.726C172.826 138.8 172.884 138.895 172.924 139.009C172.963 139.122 172.983 139.253 172.983 139.405C172.983 139.534 172.961 139.652 172.917 139.759C172.872 139.867 172.808 139.959 172.724 140.036C172.638 140.113 172.531 140.174 172.405 140.218C172.281 140.262 172.138 140.285 171.974 140.285H171.512ZM178.266 141.195V140.001C178.266 139.676 178.229 139.389 178.154 139.139C178.079 138.887 177.972 138.674 177.832 138.501C177.689 138.329 177.515 138.198 177.31 138.109C177.107 138.018 176.874 137.972 176.613 137.972C176.353 137.972 176.121 138.018 175.915 138.109C175.712 138.198 175.541 138.329 175.4 138.501C175.258 138.674 175.149 138.887 175.075 139.139C175 139.389 174.963 139.676 174.963 140.001V141.195C174.963 141.52 175 141.809 175.075 142.061C175.149 142.311 175.258 142.521 175.4 142.691C175.543 142.867 175.717 142.999 175.922 143.087C176.128 143.174 176.36 143.217 176.62 143.217C176.881 143.217 177.114 143.173 177.317 143.084C177.52 142.995 177.692 142.864 177.832 142.691C177.972 142.521 178.079 142.311 178.154 142.061C178.229 141.809 178.266 141.52 178.266 141.195ZM175.614 141.066C175.614 141.005 175.614 140.946 175.614 140.887C175.614 140.829 175.614 140.77 175.614 140.712V139.857C175.614 139.619 175.638 139.41 175.684 139.23C175.733 139.048 175.807 138.9 175.905 138.785C175.987 138.694 176.086 138.625 176.203 138.579C176.322 138.529 176.458 138.505 176.613 138.505C176.764 138.505 176.898 138.527 177.012 138.571C177.129 138.616 177.227 138.682 177.306 138.771C177.388 138.858 177.452 138.966 177.499 139.097C177.548 139.225 177.582 139.374 177.601 139.542L175.614 141.066ZM177.615 141.332C177.615 141.582 177.589 141.799 177.538 141.984C177.488 142.168 177.41 142.318 177.303 142.432C177.223 142.516 177.126 142.58 177.012 142.625C176.898 142.669 176.767 142.691 176.62 142.691C176.48 142.691 176.353 142.672 176.241 142.632C176.129 142.59 176.033 142.529 175.954 142.45C175.868 142.366 175.798 142.259 175.744 142.131C175.69 142 175.653 141.849 175.632 141.679L177.615 140.162C177.615 140.227 177.615 140.31 177.615 140.411C177.615 140.509 177.615 140.575 177.615 140.61V141.332Z" fill="black"/>
<rect x="162.497" y="128.168" width="23.9161" height="23.9161" stroke="#DFDFDF" stroke-width="0.597902"/>
<rect width="167.413" height="23.9161" transform="translate(19 152.084)" fill="#C4C4C4"/>
<rect x="19" y="152.084" width="23.9161" height="23.9161" fill="#0A4ABF"/>
<path d="M28.0152 164.201V164.726H28.4777C28.6388 164.726 28.786 164.745 28.9191 164.782C29.0546 164.82 29.1702 164.877 29.2659 164.954C29.3594 165.031 29.4318 165.128 29.4831 165.245C29.5369 165.359 29.5637 165.496 29.5637 165.655C29.5637 165.816 29.5404 165.956 29.4936 166.075C29.4493 166.192 29.385 166.29 29.301 166.369C29.2169 166.449 29.1153 166.508 28.9962 166.548C28.8771 166.585 28.7439 166.604 28.5968 166.604C28.4497 166.604 28.3154 166.583 28.1939 166.541C28.0748 166.499 27.9732 166.439 27.8891 166.362C27.805 166.285 27.7396 166.192 27.6929 166.082C27.6486 165.972 27.6264 165.851 27.6264 165.718H26.9783C26.9783 165.942 27.0203 166.142 27.1044 166.317C27.1908 166.492 27.3064 166.64 27.4512 166.762C27.596 166.883 27.7665 166.975 27.9627 167.038C28.1612 167.101 28.3726 167.133 28.5968 167.133C28.8257 167.133 29.0382 167.1 29.2344 167.035C29.4329 166.967 29.6046 166.869 29.7494 166.741C29.8942 166.615 30.0075 166.459 30.0892 166.275C30.171 166.09 30.2118 165.879 30.2118 165.641C30.2118 165.524 30.1978 165.406 30.1698 165.287C30.1441 165.168 30.0986 165.054 30.0332 164.947C29.9654 164.839 29.8755 164.743 29.7634 164.656C29.6536 164.57 29.5158 164.5 29.35 164.446C29.4878 164.388 29.6058 164.315 29.7038 164.229C29.8043 164.14 29.886 164.045 29.9491 163.945C30.0121 163.847 30.0589 163.745 30.0892 163.64C30.1196 163.535 30.1348 163.433 30.1348 163.335C30.1348 163.099 30.0974 162.892 30.0227 162.712C29.9479 162.532 29.8428 162.381 29.7074 162.26C29.5719 162.138 29.4096 162.047 29.2204 161.987C29.0312 161.924 28.8222 161.892 28.5933 161.892C28.3574 161.892 28.1425 161.929 27.9487 162.004C27.7572 162.077 27.5925 162.176 27.4547 162.302C27.3169 162.43 27.2095 162.581 27.1324 162.754C27.0577 162.924 27.0203 163.107 27.0203 163.3H27.6719C27.6719 163.167 27.6941 163.047 27.7385 162.94C27.7829 162.832 27.8459 162.74 27.9277 162.663C28.0071 162.586 28.1028 162.527 28.2149 162.488C28.3294 162.446 28.4555 162.425 28.5933 162.425C28.7358 162.425 28.8619 162.443 28.9717 162.481C29.0838 162.516 29.1772 162.569 29.2519 162.642C29.329 162.716 29.3874 162.811 29.4271 162.925C29.4668 163.038 29.4866 163.17 29.4866 163.321C29.4866 163.45 29.4645 163.568 29.4201 163.675C29.3757 163.783 29.3115 163.875 29.2274 163.952C29.141 164.029 29.0347 164.09 28.9086 164.134C28.7848 164.179 28.6412 164.201 28.4777 164.201H28.0152ZM33.6696 167.063V161.962H33.6171L31.6867 162.705V163.297L33.0215 162.789V167.063H33.6696Z" fill="white"/>
<rect x="19" y="152.084" width="23.9161" height="23.9161" stroke="#DFDFDF" stroke-width="0.597902"/>
<rect x="42.9161" y="152.084" width="23.9161" height="23.9161" fill="white"/>
<path d="M55.4312 167.063V161.962H55.3786L53.4483 162.705V163.297L54.783 162.789V167.063H55.4312Z" fill="#1B1B1B"/>
<rect x="42.9161" y="152.084" width="23.9161" height="23.9161" stroke="#DFDFDF" stroke-width="0.597902"/>
<rect x="66.8322" y="152.084" width="23.9161" height="23.9161" fill="white"/>
<path d="M80.3737 167.063V166.534H77.8128L79.1826 165.049C79.3111 164.908 79.4325 164.768 79.5469 164.628C79.6637 164.486 79.7665 164.342 79.8552 164.197C79.9417 164.052 80.0106 163.906 80.0619 163.759C80.1133 163.61 80.139 163.459 80.139 163.307C80.139 163.104 80.1028 162.916 80.0304 162.743C79.9603 162.57 79.8587 162.421 79.7256 162.295C79.5925 162.169 79.429 162.071 79.2351 162.001C79.0436 161.928 78.8276 161.892 78.587 161.892C78.3254 161.892 78.0919 161.934 77.8864 162.018C77.6832 162.102 77.5115 162.215 77.3714 162.358C77.2289 162.5 77.1203 162.667 77.0456 162.859C76.9708 163.048 76.9335 163.25 76.9335 163.465H77.5851C77.5851 163.306 77.6049 163.163 77.6446 163.034C77.6867 162.906 77.7497 162.796 77.8338 162.705C77.9156 162.616 78.0183 162.547 78.1421 162.498C78.2682 162.449 78.4165 162.425 78.587 162.425C78.7272 162.425 78.8521 162.449 78.9619 162.498C79.074 162.545 79.1698 162.609 79.2492 162.691C79.3262 162.773 79.3846 162.869 79.4243 162.982C79.4664 163.091 79.4874 163.209 79.4874 163.335C79.4874 163.438 79.4745 163.539 79.4489 163.637C79.4232 163.732 79.38 163.834 79.3192 163.941C79.2585 164.051 79.1779 164.17 79.0775 164.299C78.9771 164.427 78.8521 164.574 78.7026 164.74L77.0316 166.597V167.063H80.3737Z" fill="#1B1B1B"/>
<rect x="66.8322" y="152.084" width="23.9161" height="23.9161" stroke="#DFDFDF" stroke-width="0.597902"/>
<rect x="90.7483" y="152.084" width="23.9161" height="23.9161" fill="white"/>
<path d="M101.918 164.201V164.726H102.38C102.542 164.726 102.689 164.745 102.822 164.782C102.957 164.82 103.073 164.877 103.169 164.954C103.262 165.031 103.335 165.128 103.386 165.245C103.44 165.359 103.467 165.496 103.467 165.655C103.467 165.816 103.443 165.956 103.396 166.075C103.352 166.192 103.288 166.29 103.204 166.369C103.12 166.449 103.018 166.508 102.899 166.548C102.78 166.585 102.647 166.604 102.5 166.604C102.352 166.604 102.218 166.583 102.097 166.541C101.978 166.499 101.876 166.439 101.792 166.362C101.708 166.285 101.642 166.192 101.596 166.082C101.551 165.972 101.529 165.851 101.529 165.718H100.881C100.881 165.942 100.923 166.142 101.007 166.317C101.094 166.492 101.209 166.64 101.354 166.762C101.499 166.883 101.669 166.975 101.866 167.038C102.064 167.101 102.275 167.133 102.5 167.133C102.728 167.133 102.941 167.1 103.137 167.035C103.336 166.967 103.507 166.869 103.652 166.741C103.797 166.615 103.91 166.459 103.992 166.275C104.074 166.09 104.115 165.879 104.115 165.641C104.115 165.524 104.101 165.406 104.073 165.287C104.047 165.168 104.001 165.054 103.936 164.947C103.868 164.839 103.778 164.743 103.666 164.656C103.556 164.57 103.419 164.5 103.253 164.446C103.391 164.388 103.509 164.315 103.607 164.229C103.707 164.14 103.789 164.045 103.852 163.945C103.915 163.847 103.962 163.745 103.992 163.64C104.022 163.535 104.038 163.433 104.038 163.335C104.038 163.099 104 162.892 103.925 162.712C103.851 162.532 103.746 162.381 103.61 162.26C103.475 162.138 103.312 162.047 103.123 161.987C102.934 161.924 102.725 161.892 102.496 161.892C102.26 161.892 102.045 161.929 101.851 162.004C101.66 162.077 101.495 162.176 101.358 162.302C101.22 162.43 101.112 162.581 101.035 162.754C100.96 162.924 100.923 163.107 100.923 163.3H101.575C101.575 163.167 101.597 163.047 101.641 162.94C101.686 162.832 101.749 162.74 101.83 162.663C101.91 162.586 102.006 162.527 102.118 162.488C102.232 162.446 102.358 162.425 102.496 162.425C102.639 162.425 102.765 162.443 102.874 162.481C102.987 162.516 103.08 162.569 103.155 162.642C103.232 162.716 103.29 162.811 103.33 162.925C103.37 163.038 103.389 163.17 103.389 163.321C103.389 163.45 103.367 163.568 103.323 163.675C103.279 163.783 103.214 163.875 103.13 163.952C103.044 164.029 102.938 164.09 102.811 164.134C102.688 164.179 102.544 164.201 102.38 164.201H101.918Z" fill="#1B1B1B"/>
<rect x="90.7483" y="152.084" width="23.9161" height="23.9161" stroke="#DFDFDF" stroke-width="0.597902"/>
<rect x="114.664" y="152.084" width="23.9161" height="23.9161" fill="#9F9F9F"/>
<path d="M127.705 165.35V161.962H127.015L124.731 165.497V165.879H127.057V167.063H127.705V165.879H128.416V165.35H127.705ZM125.449 165.35L126.952 163.02L127.057 162.824V165.35H125.449Z" fill="#1B1B1B"/>
<rect x="114.664" y="152.084" width="23.9161" height="23.9161" stroke="#DFDFDF" stroke-width="0.597902"/>
<rect x="138.58" y="152.084" width="23.9161" height="23.9161" fill="#9F9F9F"/>
<path d="M149.225 164.506L149.743 164.639C149.802 164.587 149.858 164.542 149.911 164.502C149.967 164.462 150.027 164.428 150.09 164.4C150.153 164.372 150.223 164.351 150.3 164.337C150.38 164.321 150.473 164.313 150.581 164.313C150.744 164.313 150.889 164.342 151.015 164.4C151.141 164.459 151.247 164.538 151.334 164.639C151.42 164.741 151.486 164.862 151.53 164.999C151.577 165.137 151.6 165.286 151.6 165.444C151.6 165.62 151.579 165.778 151.537 165.921C151.497 166.063 151.438 166.185 151.358 166.285C151.277 166.388 151.176 166.467 151.057 166.523C150.938 166.577 150.801 166.604 150.647 166.604C150.374 166.604 150.15 166.529 149.974 166.38C149.802 166.23 149.695 166.011 149.656 165.721H149.039C149.062 165.957 149.12 166.164 149.211 166.341C149.304 166.519 149.423 166.666 149.568 166.783C149.711 166.899 149.874 166.987 150.059 167.045C150.243 167.104 150.439 167.133 150.647 167.133C150.918 167.133 151.154 167.091 151.355 167.007C151.556 166.92 151.723 166.801 151.856 166.65C151.987 166.5 152.085 166.321 152.15 166.114C152.215 165.906 152.248 165.68 152.248 165.437C152.248 165.18 152.213 164.947 152.143 164.737C152.073 164.527 151.973 164.347 151.842 164.197C151.711 164.05 151.552 163.936 151.365 163.854C151.178 163.772 150.967 163.731 150.731 163.731C150.547 163.731 150.384 163.753 150.244 163.798C150.104 163.842 149.984 163.894 149.883 163.952L150.027 162.593H152.097V161.962H149.48L149.225 164.506Z" fill="#1B1B1B"/>
<rect x="138.58" y="152.084" width="23.9161" height="23.9161" stroke="#DFDFDF" stroke-width="0.597902"/>
<rect x="162.497" y="152.084" width="23.9161" height="23.9161" fill="#9F9F9F"/>
<path d="M175.299 161.959H175.243C174.878 161.959 174.553 162.01 174.265 162.113C173.978 162.213 173.734 162.364 173.533 162.565C173.241 162.857 173.045 163.208 172.945 163.619C172.844 164.03 172.794 164.448 172.794 164.873V165.178C172.794 165.426 172.831 165.673 172.906 165.921C172.981 166.166 173.094 166.381 173.246 166.565C173.381 166.734 173.548 166.87 173.747 166.975C173.945 167.08 174.175 167.133 174.437 167.133C174.696 167.133 174.924 167.087 175.12 166.996C175.319 166.905 175.485 166.78 175.618 166.622C175.751 166.465 175.85 166.282 175.915 166.071C175.983 165.861 176.017 165.637 176.017 165.399C176.017 165.191 175.989 164.987 175.933 164.786C175.877 164.585 175.789 164.405 175.67 164.246C175.551 164.087 175.399 163.96 175.215 163.864C175.03 163.766 174.811 163.717 174.556 163.717C174.439 163.717 174.327 163.731 174.22 163.759C174.115 163.785 174.017 163.82 173.926 163.864C173.832 163.911 173.746 163.966 173.666 164.029C173.587 164.09 173.517 164.156 173.456 164.229C173.47 164.005 173.515 163.786 173.589 163.574C173.666 163.361 173.778 163.178 173.926 163.024C174.066 162.876 174.243 162.76 174.458 162.673C174.673 162.585 174.935 162.54 175.243 162.54H175.299V161.959ZM174.451 164.257C174.608 164.257 174.744 164.289 174.861 164.355C174.978 164.42 175.075 164.508 175.152 164.618C175.229 164.727 175.286 164.853 175.323 164.996C175.361 165.136 175.379 165.281 175.379 165.43C175.379 165.599 175.358 165.755 175.316 165.9C175.277 166.042 175.217 166.165 175.138 166.268C175.056 166.37 174.957 166.451 174.84 166.509C174.723 166.568 174.589 166.597 174.437 166.597C174.306 166.597 174.181 166.567 174.062 166.506C173.943 166.443 173.838 166.352 173.747 166.233C173.656 166.114 173.583 165.968 173.53 165.795C173.476 165.62 173.449 165.42 173.449 165.196V164.978C173.489 164.871 173.543 164.773 173.61 164.684C173.678 164.595 173.756 164.52 173.845 164.456C173.934 164.393 174.03 164.344 174.132 164.309C174.235 164.274 174.341 164.257 174.451 164.257Z" fill="#1B1B1B"/>
<rect x="162.497" y="152.084" width="23.9161" height="23.9161" stroke="#DFDFDF" stroke-width="0.597902"/>
<path d="M22.7678 10.3487H24.3443V15.6458C24.3443 16.1327 24.2357 16.5636 24.0185 16.9385C23.8048 17.3098 23.5018 17.5971 23.1094 17.8003C22.717 18.0035 22.2739 18.1051 21.7799 18.1051C20.9706 18.1051 20.34 17.9002 19.8881 17.4903C19.4362 17.0769 19.2102 16.4936 19.2102 15.7404H20.7972C20.7972 16.1152 20.876 16.392 21.0337 16.5706C21.1913 16.7493 21.4401 16.8386 21.7799 16.8386C22.0812 16.8386 22.3212 16.7353 22.4998 16.5286C22.6785 16.3219 22.7678 16.0276 22.7678 15.6458V10.3487ZM28.8899 18C28.8198 17.8634 28.769 17.6935 28.7375 17.4903C28.3697 17.9002 27.8915 18.1051 27.3029 18.1051C26.7459 18.1051 26.2834 17.9439 25.9156 17.6216C25.5512 17.2993 25.3691 16.8929 25.3691 16.4025C25.3691 15.7999 25.5915 15.3375 26.0364 15.0152C26.4849 14.6929 27.1312 14.5299 27.9755 14.5264H28.6745V14.2006C28.6745 13.9379 28.6061 13.7277 28.4695 13.57C28.3364 13.4124 28.1244 13.3336 27.8337 13.3336C27.5779 13.3336 27.3765 13.3949 27.2293 13.5175C27.0857 13.6401 27.0139 13.8083 27.0139 14.022H25.4952C25.4952 13.6927 25.5968 13.3879 25.8 13.1076C26.0032 12.8273 26.2904 12.6084 26.6618 12.4507C27.0331 12.2896 27.45 12.209 27.9125 12.209C28.6131 12.209 29.1684 12.3859 29.5783 12.7397C29.9917 13.0901 30.1984 13.584 30.1984 14.2217V16.6863C30.2019 17.2258 30.2772 17.6339 30.4244 17.9107V18H28.8899ZM27.634 16.9437C27.8582 16.9437 28.0649 16.8947 28.2541 16.7966C28.4432 16.695 28.5834 16.5601 28.6745 16.392V15.4145H28.1069C27.3467 15.4145 26.9421 15.6773 26.893 16.2028L26.8878 16.2921C26.8878 16.4813 26.9543 16.6372 27.0874 16.7598C27.2206 16.8824 27.4027 16.9437 27.634 16.9437ZM32.7628 12.3141L32.8101 12.971C33.2165 12.463 33.7613 12.209 34.4444 12.209C35.047 12.209 35.4954 12.3859 35.7897 12.7397C36.084 13.0936 36.2346 13.6226 36.2417 14.3268V18H34.723V14.3635C34.723 14.0412 34.6529 13.8083 34.5128 13.6646C34.3726 13.5175 34.1397 13.4439 33.8138 13.4439C33.3864 13.4439 33.0659 13.6261 32.8522 13.9904V18H31.3335V12.3141H32.7628ZM40.803 17.422C40.4281 17.8774 39.9096 18.1051 39.2475 18.1051C38.6379 18.1051 38.172 17.9299 37.8497 17.5796C37.5309 17.2293 37.368 16.716 37.361 16.0399V12.3141H38.8797V15.9873C38.8797 16.5794 39.1494 16.8754 39.6889 16.8754C40.2039 16.8754 40.5578 16.6968 40.7504 16.3394V12.3141H42.2744V18H40.845L40.803 17.422ZM46.7149 18C46.6448 17.8634 46.594 17.6935 46.5625 17.4903C46.1946 17.9002 45.7164 18.1051 45.1279 18.1051C44.5708 18.1051 44.1084 17.9439 43.7405 17.6216C43.3762 17.2993 43.194 16.8929 43.194 16.4025C43.194 15.7999 43.4165 15.3375 43.8614 15.0152C44.3098 14.6929 44.9562 14.5299 45.8005 14.5264H46.4994V14.2006C46.4994 13.9379 46.4311 13.7277 46.2945 13.57C46.1613 13.4124 45.9494 13.3336 45.6586 13.3336C45.4029 13.3336 45.2014 13.3949 45.0543 13.5175C44.9106 13.6401 44.8388 13.8083 44.8388 14.022H43.3201C43.3201 13.6927 43.4217 13.3879 43.6249 13.1076C43.8281 12.8273 44.1154 12.6084 44.4867 12.4507C44.8581 12.2896 45.275 12.209 45.7374 12.209C46.4381 12.209 46.9934 12.3859 47.4033 12.7397C47.8167 13.0901 48.0234 13.584 48.0234 14.2217V16.6863C48.0269 17.2258 48.1022 17.6339 48.2493 17.9107V18H46.7149ZM45.4589 16.9437C45.6831 16.9437 45.8898 16.8947 46.079 16.7966C46.2682 16.695 46.4083 16.5601 46.4994 16.392V15.4145H45.9319C45.1716 15.4145 44.767 15.6773 44.718 16.2028L44.7127 16.2921C44.7127 16.4813 44.7793 16.6372 44.9124 16.7598C45.0455 16.8824 45.2277 16.9437 45.4589 16.9437ZM52.385 13.7382C52.1783 13.7102 51.9961 13.6962 51.8385 13.6962C51.2639 13.6962 50.8873 13.8906 50.7087 14.2795V18H49.19V12.3141H50.6246L50.6666 12.992C50.9714 12.47 51.3936 12.209 51.9331 12.209C52.1012 12.209 52.2589 12.2318 52.406 12.2773L52.385 13.7382ZM55.3383 15.8507L56.3893 12.3141H58.0184L55.7324 18.8828L55.6063 19.1824C55.2665 19.9251 54.706 20.2964 53.9247 20.2964C53.704 20.2964 53.4798 20.2632 53.2521 20.1966V19.0457L53.4833 19.051C53.7706 19.051 53.9843 19.0072 54.1244 18.9196C54.268 18.832 54.3802 18.6867 54.4607 18.4835L54.6394 18.0158L52.6478 12.3141H54.2821L55.3383 15.8507Z" fill="black"/>
<g opacity="0.2">
<path fill-rule="evenodd" clip-rule="evenodd" d="M180.109 18.7366L179.263 17.891L182.727 14.4274L179.263 10.9639L180.109 10.1183L184.418 14.4274L180.109 18.7366Z" fill="black"/>
</g>
<path fill-rule="evenodd" clip-rule="evenodd" d="M168.8 10.1183L169.646 10.9639L166.182 14.4274L169.646 17.891L168.8 18.7366L164.491 14.4274L168.8 10.1183Z" fill="black"/>
</svg>
